Nobel-Light_Italic.ufo
<glyph name="exclam" format="1">
  <advance width="189"/>
  <unicode hex="0021"/>
  <outline>
    <contour>
      <point x="181" y="730" type="line"/>
      <point x="105" y="300" type="line"/>
      <point x="65" y="129" type="line"/>
      <point x="40" y="129" type="line"/>
      <point x="60" y="300" type="line"/>
      <point x="136" y="730" type="line"/>
    </contour>
    <contour>
      <point x="67" y="84" type="line"/>
      <point x="52" y="0" type="line"/>
      <point x="7" y="0" type="line"/>
      <point x="22" y="84" type="line"/>
    </contour>
  </outline>
</glyph>
<glyph name="quotedbl" format="1">
  <advance width="280"/>
  <unicode hex="0022"/>
  <outline>
    <contour>
      <point x="284" y="730" type="line"/>
      <point x="268" y="643" type="line"/>
      <point x="243" y="553" type="line"/>
      <point x="218" y="553" type="line"/>
      <point x="223" y="643" type="line"/>
      <point x="239" y="730" type="line"/>
    </contour>
    <contour>
      <point x="169" y="730" type="line"/>
      <point x="153" y="643" type="line"/>
      <point x="128" y="553" type="line"/>
      <point x="103" y="553" type="line"/>
      <point x="108" y="643" type="line"/>
      <point x="124" y="730" type="line"/>
    </contour>
  </outline>
</glyph>
<glyph name="numbersign" format="1">
  <advance width="586"/>
  <unicode hex="0023"/>
  <outline>
    <contour>
      <point x="580" y="506" type="line"/>
      <point x="574" y="472" type="line"/>
      <point x="453" y="472" type="line"/>
      <point x="397" y="261" type="line"/>
      <point x="537" y="261" type="line"/>
      <point x="531" y="227" type="line"/>
      <point x="388" y="227" type="line"/>
      <point x="328" y="0" type="line"/>
      <point x="286" y="0" type="line"/>
      <point x="346" y="227" type="line"/>
      <point x="166" y="227" type="line"/>
      <point x="106" y="0" type="line"/>
      <point x="64" y="0" type="line"/>
      <point x="124" y="227" type="line"/>
      <point x="5" y="227" type="line"/>
      <point x="11" y="261" type="line"/>
      <point x="133" y="261" type="line"/>
      <point x="189" y="472" type="line"/>
      <point x="48" y="472" type="line"/>
      <point x="54" y="506" type="line"/>
      <point x="198" y="506" type="line"/>
      <point x="257" y="730" type="line"/>
      <point x="299" y="730" type="line"/>
      <point x="240" y="506" type="line"/>
      <point x="420" y="506" type="line"/>
      <point x="479" y="730" type="line"/>
      <point x="521" y="730" type="line"/>
      <point x="462" y="506" type="line"/>
    </contour>
    <contour>
      <point x="411" y="472" type="line"/>
      <point x="231" y="472" type="line"/>
      <point x="175" y="261" type="line"/>
      <point x="355" y="261" type="line"/>
    </contour>
  </outline>
</glyph>
<glyph name="dollar" format="1">
  <advance width="482"/>
  <unicode hex="0024"/>
  <outline>
    <contour>
      <point x="472" y="644" type="curve"/>
      <point x="433" y="617" type="line"/>
      <point x="403" y="663"/>
      <point x="364" y="683"/>
      <point x="315" y="689" type="curve"/>
      <point x="264" y="396" type="line"/>
      <point x="366" y="330"/>
      <point x="411" y="286"/>
      <point x="411" y="197" type="curve" smooth="yes"/>
      <point x="411" y="79"/>
      <point x="311" y="3"/>
      <point x="194" y="-1" type="curve"/>
      <point x="182" y="-69" type="line"/>
      <point x="144" y="-69" type="line"/>
      <point x="156" y="0" type="line"/>
      <point x="91" y="7"/>
      <point x="30" y="40"/>
      <point x="-7" y="84" type="curve"/>
      <point x="28" y="114" type="line"/>
      <point x="61" y="77"/>
      <point x="108" y="48"/>
      <point x="163" y="41" type="curve"/>
      <point x="221" y="368" type="line"/>
      <point x="145" y="416"/>
      <point x="88" y="463"/>
      <point x="88" y="549" type="curve" smooth="yes"/>
      <point x="88" y="654"/>
      <point x="174" y="729"/>
      <point x="285" y="732" type="curve"/>
      <point x="294" y="785" type="line"/>
      <point x="332" y="785" type="line"/>
      <point x="322" y="730" type="line"/>
      <point x="387" y="724"/>
      <point x="437" y="696"/>
    </contour>
    <contour>
      <point x="277" y="690" type="line"/>
      <point x="198" y="686"/>
      <point x="136" y="637"/>
      <point x="136" y="553" type="curve" smooth="yes"/>
      <point x="136" y="501"/>
      <point x="162" y="465"/>
      <point x="230" y="418" type="curve"/>
    </contour>
    <contour>
      <point x="362" y="190" type="curve" smooth="yes"/>
      <point x="362" y="254"/>
      <point x="332" y="294"/>
      <point x="255" y="346" type="curve"/>
      <point x="201" y="40" type="line"/>
      <point x="291" y="46"/>
      <point x="362" y="101"/>
    </contour>
  </outline>
</glyph>
<glyph name="percent" format="1">
  <advance width="730"/>
  <unicode hex="0025"/>
  <outline>
    <contour>
      <point x="371" y="601" type="curve" smooth="yes"/>
      <point x="371" y="471"/>
      <point x="287" y="365"/>
      <point x="197" y="365" type="curve" smooth="yes"/>
      <point x="119" y="365"/>
      <point x="79" y="424"/>
      <point x="79" y="506" type="curve" smooth="yes"/>
      <point x="79" y="636"/>
      <point x="163" y="742"/>
      <point x="253" y="742" type="curve" smooth="yes"/>
      <point x="331" y="742"/>
      <point x="371" y="683"/>
    </contour>
    <contour>
      <point x="702" y="730" type="line"/>
      <point x="76" y="0" type="line"/>
      <point x="27" y="0" type="line"/>
      <point x="653" y="730" type="line"/>
    </contour>
    <contour>
      <point x="650" y="224" type="curve" smooth="yes"/>
      <point x="650" y="94"/>
      <point x="566" y="-12"/>
      <point x="476" y="-12" type="curve" smooth="yes"/>
      <point x="398" y="-12"/>
      <point x="358" y="47"/>
      <point x="358" y="129" type="curve" smooth="yes"/>
      <point x="358" y="259"/>
      <point x="442" y="365"/>
      <point x="532" y="365" type="curve" smooth="yes"/>
      <point x="610" y="365"/>
      <point x="650" y="306"/>
    </contour>
    <contour>
      <point x="327" y="598" type="curve" smooth="yes"/>
      <point x="327" y="661"/>
      <point x="298" y="705"/>
      <point x="248" y="705" type="curve" smooth="yes"/>
      <point x="180" y="705"/>
      <point x="123" y="616"/>
      <point x="123" y="509" type="curve" smooth="yes"/>
      <point x="123" y="446"/>
      <point x="152" y="402"/>
      <point x="202" y="402" type="curve" smooth="yes"/>
      <point x="270" y="402"/>
      <point x="327" y="491"/>
    </contour>
    <contour>
      <point x="606" y="221" type="curve" smooth="yes"/>
      <point x="606" y="284"/>
      <point x="577" y="328"/>
      <point x="527" y="328" type="curve" smooth="yes"/>
      <point x="459" y="328"/>
      <point x="402" y="239"/>
      <point x="402" y="132" type="curve" smooth="yes"/>
      <point x="402" y="69"/>
      <point x="431" y="25"/>
      <point x="481" y="25" type="curve" smooth="yes"/>
      <point x="549" y="25"/>
      <point x="606" y="114"/>
    </contour>
  </outline>
</glyph>
<glyph name="ampersand" format="1">
  <advance width="630"/>
  <unicode hex="0026"/>
  <outline>
    <contour>
      <point x="555" y="201" type="line"/>
      <point x="526" y="172"/>
      <point x="499" y="145"/>
      <point x="471" y="121" type="curve"/>
      <point x="556" y="0" type="line"/>
      <point x="501" y="0" type="line"/>
      <point x="437" y="92" type="line"/>
      <point x="358" y="28"/>
      <point x="281" y="-12"/>
      <point x="197" y="-12" type="curve" smooth="yes"/>
      <point x="85" y="-12"/>
      <point x="21" y="63"/>
      <point x="21" y="155" type="curve" smooth="yes"/>
      <point x="21" y="248"/>
      <point x="86" y="332"/>
      <point x="219" y="404" type="curve"/>
      <point x="191" y="445" type="line" smooth="yes"/>
      <point x="159" y="491"/>
      <point x="144" y="530"/>
      <point x="144" y="582" type="curve" smooth="yes"/>
      <point x="144" y="672"/>
      <point x="223" y="742"/>
      <point x="313" y="742" type="curve" smooth="yes"/>
      <point x="397" y="742"/>
      <point x="458" y="685"/>
      <point x="458" y="609" type="curve" smooth="yes"/>
      <point x="458" y="523"/>
      <point x="390" y="459"/>
      <point x="279" y="396" type="curve"/>
      <point x="449" y="153" type="line"/>
      <point x="475" y="177"/>
      <point x="502" y="203"/>
      <point x="530" y="232" type="curve"/>
    </contour>
    <contour>
      <point x="412" y="605" type="curve" smooth="yes"/>
      <point x="412" y="667"/>
      <point x="368" y="701"/>
      <point x="306" y="701" type="curve" smooth="yes"/>
      <point x="242" y="701"/>
      <point x="190" y="651"/>
      <point x="190" y="581" type="curve" smooth="yes"/>
      <point x="190" y="541"/>
      <point x="205" y="501"/>
      <point x="228" y="468" type="curve" smooth="yes"/>
      <point x="258" y="425" type="line"/>
      <point x="354" y="478"/>
      <point x="412" y="537"/>
    </contour>
    <contour>
      <point x="415" y="124" type="curve"/>
      <point x="240" y="374" type="line"/>
      <point x="120" y="306"/>
      <point x="69" y="237"/>
      <point x="69" y="161" type="curve" smooth="yes"/>
      <point x="69" y="91"/>
      <point x="111" y="29"/>
      <point x="199" y="29" type="curve" smooth="yes"/>
      <point x="274" y="29"/>
      <point x="341" y="64"/>
    </contour>
  </outline>
</glyph>
<glyph name="quotesingle" format="1">
  <advance width="165"/>
  <unicode hex="0027"/>
  <outline>
    <contour>
      <point x="169" y="730" type="line"/>
      <point x="153" y="643" type="line"/>
      <point x="128" y="553" type="line"/>
      <point x="103" y="553" type="line"/>
      <point x="108" y="643" type="line"/>
      <point x="124" y="730" type="line"/>
    </contour>
  </outline>
</glyph>
<glyph name="parenleft" format="1">
  <advance width="293"/>
  <unicode hex="0028"/>
  <outline>
    <contour>
      <point x="351" y="772" type="curve"/>
      <point x="346" y="744" type="line"/>
      <point x="201" y="633"/>
      <point x="67" y="418"/>
      <point x="67" y="193" type="curve" smooth="yes"/>
      <point x="67" y="76"/>
      <point x="98" y="-63"/>
      <point x="184" y="-168" type="curve"/>
      <point x="179" y="-195" type="line"/>
      <point x="67" y="-86"/>
      <point x="19" y="43"/>
      <point x="19" y="181" type="curve" smooth="yes"/>
      <point x="19" y="426"/>
      <point x="154" y="645"/>
    </contour>
  </outline>
</glyph>
<glyph name="parenright" format="1">
  <advance width="293"/>
  <unicode hex="0029"/>
  <outline>
    <contour>
      <point x="246" y="397" type="curve" smooth="yes"/>
      <point x="246" y="152"/>
      <point x="111" y="-67"/>
      <point x="-86" y="-194" type="curve"/>
      <point x="-81" y="-166" type="line"/>
      <point x="64" y="-55"/>
      <point x="198" y="160"/>
      <point x="198" y="385" type="curve" smooth="yes"/>
      <point x="198" y="502"/>
      <point x="167" y="641"/>
      <point x="81" y="746" type="curve"/>
      <point x="86" y="773" type="line"/>
      <point x="198" y="664"/>
      <point x="246" y="535"/>
    </contour>
  </outline>
</glyph>
<glyph name="asterisk" format="1">
  <advance width="393"/>
  <unicode hex="002A"/>
  <outline>
    <contour>
      <point x="387" y="565" type="line"/>
      <point x="375" y="531" type="line"/>
      <point x="248" y="576" type="line"/>
      <point x="252" y="440" type="line"/>
      <point x="216" y="440" type="line"/>
      <point x="220" y="576" type="line"/>
      <point x="91" y="531" type="line"/>
      <point x="79" y="565" type="line"/>
      <point x="209" y="604" type="line"/>
      <point x="127" y="711" type="line"/>
      <point x="156" y="733" type="line"/>
      <point x="233" y="622" type="line"/>
      <point x="310" y="732" type="line"/>
      <point x="340" y="712" type="line"/>
      <point x="257" y="604" type="line"/>
    </contour>
  </outline>
</glyph>
<glyph name="plus" format="1">
  <advance width="502"/>
  <unicode hex="002B"/>
  <outline>
    <contour>
      <point x="464" y="350" type="line"/>
      <point x="457" y="310" type="line"/>
      <point x="263" y="310" type="line"/>
      <point x="230" y="125" type="line"/>
      <point x="186" y="125" type="line"/>
      <point x="219" y="310" type="line"/>
      <point x="25" y="310" type="line"/>
      <point x="32" y="350" type="line"/>
      <point x="226" y="350" type="line"/>
      <point x="259" y="537" type="line"/>
      <point x="303" y="537" type="line"/>
      <point x="270" y="350" type="line"/>
    </contour>
  </outline>
</glyph>
<glyph name="hyphen" format="1">
  <advance width="330"/>
  <unicode hex="002D"/>
  <unicode hex="2010"/>
  <unicode hex="2011"/>
  <outline>
    <contour>
      <point x="248" y="246" type="line"/>
      <point x="241" y="206" type="line"/>
      <point x="31" y="206" type="line"/>
      <point x="38" y="246" type="line"/>
    </contour>
  </outline>
</glyph>
<glyph name="period" format="1">
  <advance width="165"/>
  <unicode hex="002E"/>
  <outline>
    <contour>
      <point x="55" y="84" type="line"/>
      <point x="40" y="0" type="line"/>
      <point x="-5" y="0" type="line"/>
      <point x="10" y="84" type="line"/>
    </contour>
  </outline>
</glyph>
<glyph name="slash" format="1">
  <advance width="372"/>
  <unicode hex="002F"/>
  <outline>
    <contour>
      <point x="396" y="730" type="line"/>
      <point x="20" y="0" type="line"/>
      <point x="-25" y="0" type="line"/>
      <point x="351" y="730" type="line"/>
    </contour>
  </outline>
</glyph>
<glyph name="zero" format="1">
  <advance width="602"/>
  <unicode hex="0030"/>
  <outline>
    <contour>
      <point x="573" y="462" type="curve" smooth="yes"/>
      <point x="573" y="227"/>
      <point x="443" y="-12"/>
      <point x="248" y="-12" type="curve" smooth="yes"/>
      <point x="110" y="-12"/>
      <point x="29" y="87"/>
      <point x="29" y="268" type="curve" smooth="yes"/>
      <point x="29" y="503"/>
      <point x="159" y="742"/>
      <point x="354" y="742" type="curve" smooth="yes"/>
      <point x="492" y="742"/>
      <point x="573" y="643"/>
    </contour>
    <contour>
      <point x="524" y="462" type="curve" smooth="yes"/>
      <point x="524" y="618"/>
      <point x="458" y="701"/>
      <point x="349" y="701" type="curve" smooth="yes"/>
      <point x="188" y="701"/>
      <point x="78" y="487"/>
      <point x="78" y="268" type="curve" smooth="yes"/>
      <point x="78" y="112"/>
      <point x="144" y="29"/>
      <point x="253" y="29" type="curve" smooth="yes"/>
      <point x="414" y="29"/>
      <point x="524" y="243"/>
    </contour>
  </outline>
</glyph>
<glyph name="one" format="1">
  <advance width="258"/>
  <unicode hex="0031"/>
  <outline>
    <contour>
      <point x="250" y="730" type="line"/>
      <point x="121" y="0" type="line"/>
      <point x="76" y="0" type="line"/>
      <point x="190" y="644" type="line"/>
      <point x="158" y="607"/>
      <point x="99" y="577"/>
      <point x="48" y="570" type="curve"/>
      <point x="56" y="610" type="line"/>
      <point x="112" y="616"/>
      <point x="181" y="672"/>
      <point x="211" y="730" type="curve"/>
    </contour>
  </outline>
</glyph>
<glyph name="two" format="1">
  <advance width="515"/>
  <unicode hex="0032"/>
  <outline>
    <contour>
      <point x="498" y="564" type="curve" smooth="yes"/>
      <point x="498" y="483"/>
      <point x="461" y="426"/>
      <point x="371" y="340" type="curve" smooth="yes"/>
      <point x="61" y="44" type="line"/>
      <point x="415" y="44" type="line"/>
      <point x="407" y="0" type="line"/>
      <point x="-43" y="0" type="line"/>
      <point x="342" y="368" type="line" smooth="yes"/>
      <point x="412" y="434"/>
      <point x="450" y="491"/>
      <point x="450" y="561" type="curve" smooth="yes"/>
      <point x="450" y="639"/>
      <point x="396" y="700"/>
      <point x="304" y="700" type="curve" smooth="yes"/>
      <point x="207" y="700"/>
      <point x="147" y="651"/>
      <point x="113" y="551" type="curve"/>
      <point x="67" y="551" type="line"/>
      <point x="101" y="668"/>
      <point x="187" y="742"/>
      <point x="310" y="742" type="curve" smooth="yes"/>
      <point x="420" y="742"/>
      <point x="498" y="669"/>
    </contour>
  </outline>
</glyph>
<glyph name="three" format="1">
  <advance width="548"/>
  <unicode hex="0033"/>
  <outline>
    <contour>
      <point x="510" y="585" type="curve" smooth="yes"/>
      <point x="510" y="484"/>
      <point x="444" y="421"/>
      <point x="350" y="389" type="curve"/>
      <point x="424" y="369"/>
      <point x="477" y="309"/>
      <point x="477" y="226" type="curve" smooth="yes"/>
      <point x="477" y="92"/>
      <point x="368" y="-12"/>
      <point x="221" y="-12" type="curve" smooth="yes"/>
      <point x="105" y="-12"/>
      <point x="16" y="40"/>
      <point x="-28" y="119" type="curve"/>
      <point x="9" y="146" type="line"/>
      <point x="62" y="65"/>
      <point x="123" y="29"/>
      <point x="223" y="29" type="curve" smooth="yes"/>
      <point x="349" y="29"/>
      <point x="429" y="112"/>
      <point x="429" y="223" type="curve" smooth="yes"/>
      <point x="429" y="311"/>
      <point x="359" y="372"/>
      <point x="241" y="372" type="curve" smooth="yes"/>
      <point x="190" y="372" type="line"/>
      <point x="197" y="412" type="line"/>
      <point x="251" y="412" type="line" smooth="yes"/>
      <point x="384" y="412"/>
      <point x="462" y="481"/>
      <point x="462" y="575" type="curve" smooth="yes"/>
      <point x="462" y="652"/>
      <point x="404" y="699"/>
      <point x="315" y="699" type="curve" smooth="yes"/>
      <point x="238" y="699"/>
      <point x="179" y="667"/>
      <point x="135" y="619" type="curve"/>
      <point x="102" y="646" type="line"/>
      <point x="166" y="712"/>
      <point x="236" y="741"/>
      <point x="321" y="741" type="curve" smooth="yes"/>
      <point x="431" y="741"/>
      <point x="510" y="679"/>
    </contour>
  </outline>
</glyph>
<glyph name="four" format="1">
  <advance width="539"/>
  <unicode hex="0034"/>
  <outline>
    <contour>
      <point x="496" y="236" type="line"/>
      <point x="489" y="196" type="line"/>
      <point x="372" y="196" type="line"/>
      <point x="337" y="0" type="line"/>
      <point x="292" y="0" type="line"/>
      <point x="327" y="196" type="line"/>
      <point x="-9" y="196" type="line"/>
      <point x="-4" y="228" type="line"/>
      <point x="439" y="730" type="line"/>
      <point x="466" y="730" type="line"/>
      <point x="379" y="236" type="line"/>
    </contour>
    <contour>
      <point x="404" y="634" type="line"/>
      <point x="54" y="236" type="line"/>
      <point x="334" y="236" type="line"/>
    </contour>
  </outline>
</glyph>
<glyph name="five" format="1">
  <advance width="577"/>
  <unicode hex="0035"/>
  <outline>
    <contour>
      <point x="534" y="730" type="line"/>
      <point x="527" y="690" type="line"/>
      <point x="194" y="690" type="line"/>
      <point x="133" y="435" type="line"/>
      <point x="178" y="473"/>
      <point x="231" y="500"/>
      <point x="293" y="500" type="curve" smooth="yes"/>
      <point x="426" y="500"/>
      <point x="505" y="405"/>
      <point x="505" y="286" type="curve" smooth="yes"/>
      <point x="505" y="115"/>
      <point x="377" y="-12"/>
      <point x="219" y="-12" type="curve" smooth="yes"/>
      <point x="115" y="-12"/>
      <point x="36" y="42"/>
      <point x="-7" y="102" type="curve"/>
      <point x="29" y="131" type="line"/>
      <point x="77" y="70"/>
      <point x="137" y="30"/>
      <point x="225" y="30" type="curve" smooth="yes"/>
      <point x="351" y="30"/>
      <point x="457" y="129"/>
      <point x="457" y="283" type="curve" smooth="yes"/>
      <point x="457" y="378"/>
      <point x="396" y="458"/>
      <point x="286" y="458" type="curve" smooth="yes"/>
      <point x="209" y="458"/>
      <point x="151" y="416"/>
      <point x="105" y="354" type="curve"/>
      <point x="74" y="370" type="line"/>
      <point x="158" y="730" type="line"/>
    </contour>
  </outline>
</glyph>
<glyph name="six" format="1">
  <advance width="566"/>
  <unicode hex="0036"/>
  <outline>
    <contour>
      <point x="510" y="278" type="curve" smooth="yes"/>
      <point x="510" y="125"/>
      <point x="385" y="-12"/>
      <point x="227" y="-12" type="curve" smooth="yes"/>
      <point x="105" y="-12"/>
      <point x="11" y="61"/>
      <point x="11" y="197" type="curve" smooth="yes"/>
      <point x="11" y="391"/>
      <point x="197" y="605"/>
      <point x="352" y="730" type="curve"/>
      <point x="416" y="730" type="line"/>
      <point x="299" y="644"/>
      <point x="171" y="502"/>
      <point x="120" y="406" type="curve"/>
      <point x="169" y="451"/>
      <point x="231" y="479"/>
      <point x="305" y="479" type="curve" smooth="yes"/>
      <point x="425" y="479"/>
      <point x="510" y="401"/>
    </contour>
    <contour>
      <point x="462" y="275" type="curve" smooth="yes"/>
      <point x="462" y="373"/>
      <point x="399" y="438"/>
      <point x="292" y="438" type="curve" smooth="yes"/>
      <point x="170" y="438"/>
      <point x="59" y="329"/>
      <point x="59" y="202" type="curve" smooth="yes"/>
      <point x="59" y="96"/>
      <point x="124" y="33"/>
      <point x="235" y="33" type="curve" smooth="yes"/>
      <point x="368" y="33"/>
      <point x="462" y="147"/>
    </contour>
  </outline>
</glyph>
<glyph name="seven" format="1">
  <advance width="505"/>
  <unicode hex="0037"/>
  <outline>
    <contour>
      <point x="537" y="730" type="line"/>
      <point x="50" y="0" type="line"/>
      <point x="-1" y="0" type="line"/>
      <point x="460" y="689" type="line"/>
      <point x="97" y="689" type="line"/>
      <point x="105" y="730" type="line"/>
    </contour>
  </outline>
</glyph>
<glyph name="eight" format="1">
  <advance width="602"/>
  <unicode hex="0038"/>
  <outline>
    <contour>
      <point x="558" y="578" type="curve" smooth="yes"/>
      <point x="558" y="475"/>
      <point x="478" y="408"/>
      <point x="405" y="384" type="curve"/>
      <point x="479" y="362"/>
      <point x="536" y="302"/>
      <point x="536" y="215" type="curve" smooth="yes"/>
      <point x="536" y="85"/>
      <point x="415" y="-10"/>
      <point x="258" y="-10" type="curve" smooth="yes"/>
      <point x="114" y="-10"/>
      <point x="7" y="63"/>
      <point x="7" y="184" type="curve" smooth="yes"/>
      <point x="7" y="272"/>
      <point x="81" y="372"/>
      <point x="203" y="396" type="curve"/>
      <point x="147" y="424"/>
      <point x="111" y="471"/>
      <point x="111" y="543" type="curve" smooth="yes"/>
      <point x="111" y="655"/>
      <point x="217" y="742"/>
      <point x="355" y="742" type="curve" smooth="yes"/>
      <point x="477" y="742"/>
      <point x="558" y="671"/>
    </contour>
    <contour>
      <point x="510" y="573" type="curve" smooth="yes"/>
      <point x="510" y="651"/>
      <point x="450" y="700"/>
      <point x="345" y="700" type="curve" smooth="yes"/>
      <point x="224" y="700"/>
      <point x="158" y="626"/>
      <point x="158" y="541" type="curve" smooth="yes"/>
      <point x="158" y="465"/>
      <point x="210" y="408"/>
      <point x="324" y="408" type="curve" smooth="yes"/>
      <point x="433" y="408"/>
      <point x="510" y="474"/>
    </contour>
    <contour>
      <point x="489" y="213" type="curve" smooth="yes"/>
      <point x="489" y="306"/>
      <point x="415" y="367"/>
      <point x="288" y="369" type="curve" smooth="yes"/>
      <point x="145" y="372"/>
      <point x="55" y="291"/>
      <point x="55" y="185" type="curve" smooth="yes"/>
      <point x="55" y="85"/>
      <point x="148" y="31"/>
      <point x="258" y="31" type="curve" smooth="yes"/>
      <point x="398" y="31"/>
      <point x="489" y="109"/>
    </contour>
  </outline>
</glyph>
<glyph name="nine" format="1">
  <advance width="566"/>
  <unicode hex="0039"/>
  <outline>
    <contour>
      <point x="544" y="529" type="curve" smooth="yes"/>
      <point x="544" y="313"/>
      <point x="341" y="91"/>
      <point x="201" y="-18" type="curve"/>
      <point x="172" y="17" type="line"/>
      <point x="275" y="90"/>
      <point x="370" y="201"/>
      <point x="428" y="297" type="curve"/>
      <point x="379" y="254"/>
      <point x="321" y="232"/>
      <point x="254" y="232" type="curve" smooth="yes"/>
      <point x="144" y="232"/>
      <point x="46" y="310"/>
      <point x="46" y="450" type="curve" smooth="yes"/>
      <point x="46" y="619"/>
      <point x="185" y="741"/>
      <point x="327" y="741" type="curve" smooth="yes"/>
      <point x="462" y="741"/>
      <point x="544" y="651"/>
    </contour>
    <contour>
      <point x="496" y="525" type="curve" smooth="yes"/>
      <point x="496" y="632"/>
      <point x="431" y="698"/>
      <point x="317" y="698" type="curve" smooth="yes"/>
      <point x="191" y="698"/>
      <point x="94" y="587"/>
      <point x="94" y="454" type="curve" smooth="yes"/>
      <point x="94" y="333"/>
      <point x="170" y="275"/>
      <point x="268" y="275" type="curve" smooth="yes"/>
      <point x="401" y="275"/>
      <point x="496" y="381"/>
    </contour>
  </outline>
</glyph>
<glyph name="colon" format="1">
  <advance width="165"/>
  <unicode hex="003A"/>
  <outline>
    <contour>
      <point x="115" y="425" type="line"/>
      <point x="100" y="341" type="line"/>
      <point x="55" y="341" type="line"/>
      <point x="70" y="425" type="line"/>
    </contour>
    <contour>
      <point x="55" y="84" type="line"/>
      <point x="40" y="0" type="line"/>
      <point x="-5" y="0" type="line"/>
      <point x="10" y="84" type="line"/>
    </contour>
  </outline>
</glyph>
<glyph name="semicolon" format="1">
  <advance width="165"/>
  <unicode hex="003B"/>
  <outline>
    <contour>
      <point x="115" y="425" type="line"/>
      <point x="100" y="341" type="line"/>
      <point x="55" y="341" type="line"/>
      <point x="70" y="425" type="line"/>
    </contour>
    <contour>
      <point x="55" y="84" type="line"/>
      <point x="40" y="0" type="line" smooth="yes"/>
      <point x="28" y="-65"/>
      <point x="-5" y="-114"/>
      <point x="-42" y="-148" type="curve"/>
      <point x="-70" y="-148" type="line"/>
      <point x="-31" y="-103"/>
      <point x="-15" y="-61"/>
      <point x="-4" y="3" type="curve" smooth="yes"/>
      <point x="10" y="84" type="line"/>
    </contour>
  </outline>
</glyph>
<glyph name="less" format="1">
  <advance width="350"/>
  <unicode hex="003C"/>
  <outline>
    <contour>
      <point x="340" y="545" type="line"/>
      <point x="331" y="494" type="line"/>
      <point x="67" y="325" type="line"/>
      <point x="271" y="155" type="line"/>
      <point x="262" y="102" type="line"/>
      <point x="26" y="303" type="line"/>
      <point x="34" y="346" type="line"/>
    </contour>
  </outline>
</glyph>
<glyph name="equal" format="1">
  <advance width="482"/>
  <unicode hex="003D"/>
  <outline>
    <contour>
      <point x="427" y="428" type="line"/>
      <point x="420" y="388" type="line"/>
      <point x="68" y="388" type="line"/>
      <point x="75" y="428" type="line"/>
    </contour>
    <contour>
      <point x="401" y="278" type="line"/>
      <point x="394" y="238" type="line"/>
      <point x="42" y="238" type="line"/>
      <point x="49" y="278" type="line"/>
    </contour>
  </outline>
</glyph>
<glyph name="question" format="1">
  <advance width="437"/>
  <unicode hex="003F"/>
  <outline>
    <contour>
      <point x="428" y="590" type="curve" smooth="yes"/>
      <point x="428" y="513"/>
      <point x="386" y="457"/>
      <point x="300" y="366" type="curve" smooth="yes"/>
      <point x="234" y="296"/>
      <point x="199" y="243"/>
      <point x="186" y="171" type="curve" smooth="yes"/>
      <point x="179" y="131" type="line"/>
      <point x="134" y="131" type="line"/>
      <point x="141" y="171" type="line" smooth="yes"/>
      <point x="155" y="253"/>
      <point x="189" y="306"/>
      <point x="270" y="393" type="curve" smooth="yes"/>
      <point x="354" y="483"/>
      <point x="379" y="525"/>
      <point x="379" y="585" type="curve" smooth="yes"/>
      <point x="379" y="650"/>
      <point x="330" y="700"/>
      <point x="256" y="700" type="curve" smooth="yes"/>
      <point x="198" y="700"/>
      <point x="150" y="676"/>
      <point x="110" y="622" type="curve"/>
      <point x="81" y="649" type="line"/>
      <point x="129" y="716"/>
      <point x="195" y="742"/>
      <point x="260" y="742" type="curve" smooth="yes"/>
      <point x="362" y="742"/>
      <point x="428" y="675"/>
    </contour>
    <contour>
      <point x="171" y="84" type="line"/>
      <point x="156" y="0" type="line"/>
      <point x="111" y="0" type="line"/>
      <point x="126" y="84" type="line"/>
    </contour>
  </outline>
</glyph>
<glyph name="at" format="1">
  <advance width="844"/>
  <unicode hex="0040"/>
  <outline>
    <contour>
      <point x="799" y="395" type="curve" smooth="yes"/>
      <point x="799" y="238"/>
      <point x="704" y="164"/>
      <point x="624" y="164" type="curve" smooth="yes"/>
      <point x="583" y="164"/>
      <point x="550" y="187"/>
      <point x="544" y="222" type="curve"/>
      <point x="510" y="192"/>
      <point x="458" y="164"/>
      <point x="395" y="164" type="curve" smooth="yes"/>
      <point x="316" y="164"/>
      <point x="251" y="208"/>
      <point x="251" y="290" type="curve" smooth="yes"/>
      <point x="251" y="381"/>
      <point x="328" y="430"/>
      <point x="461" y="430" type="curve" smooth="yes"/>
      <point x="543" y="430" type="line"/>
      <point x="543" y="463" type="line" smooth="yes"/>
      <point x="543" y="538"/>
      <point x="485" y="551"/>
      <point x="429" y="551" type="curve" smooth="yes"/>
      <point x="380" y="551"/>
      <point x="341" y="542"/>
      <point x="308" y="522" type="curve"/>
      <point x="291" y="556" type="line"/>
      <point x="328" y="577"/>
      <point x="374" y="589"/>
      <point x="429" y="589" type="curve" smooth="yes"/>
      <point x="537" y="589"/>
      <point x="584" y="540"/>
      <point x="584" y="467" type="curve" smooth="yes"/>
      <point x="584" y="249" type="line" smooth="yes"/>
      <point x="584" y="214"/>
      <point x="602" y="200"/>
      <point x="633" y="200" type="curve" smooth="yes"/>
      <point x="691" y="200"/>
      <point x="764" y="266"/>
      <point x="764" y="394" type="curve" smooth="yes"/>
      <point x="764" y="557"/>
      <point x="639" y="707"/>
      <point x="422" y="707" type="curve" smooth="yes"/>
      <point x="233" y="707"/>
      <point x="79" y="553"/>
      <point x="79" y="364" type="curve" smooth="yes"/>
      <point x="79" y="181"/>
      <point x="234" y="21"/>
      <point x="422" y="21" type="curve" smooth="yes"/>
      <point x="462" y="21"/>
      <point x="508" y="27"/>
      <point x="560" y="51" type="curve"/>
      <point x="574" y="21" type="line"/>
      <point x="519" y="-4"/>
      <point x="468" y="-12"/>
      <point x="422" y="-12" type="curve" smooth="yes"/>
      <point x="214" y="-12"/>
      <point x="45" y="157"/>
      <point x="45" y="365" type="curve" smooth="yes"/>
      <point x="45" y="573"/>
      <point x="214" y="742"/>
      <point x="422" y="742" type="curve" smooth="yes"/>
      <point x="650" y="742"/>
      <point x="799" y="587"/>
    </contour>
    <contour>
      <point x="543" y="263" type="curve"/>
      <point x="543" y="394" type="line"/>
      <point x="465" y="394" type="line" smooth="yes"/>
      <point x="356" y="394"/>
      <point x="294" y="364"/>
      <point x="294" y="292" type="curve" smooth="yes"/>
      <point x="294" y="236"/>
      <point x="339" y="202"/>
      <point x="395" y="202" type="curve" smooth="yes"/>
      <point x="454" y="202"/>
      <point x="508" y="233"/>
    </contour>
  </outline>
</glyph>
<glyph name="A" format="1">
  <advance width="626"/>
  <unicode hex="0041"/>
  <outline>
    <contour>
      <point x="531" y="0" type="line"/>
      <point x="483" y="0" type="line"/>
      <point x="433" y="280" type="line"/>
      <point x="163" y="280" type="line"/>
      <point x="13" y="0" type="line"/>
      <point x="-35" y="0" type="line"/>
      <point x="367" y="742" type="line"/>
      <point x="392" y="742" type="line"/>
    </contour>
    <contour>
      <point x="426" y="320" type="line"/>
      <point x="366" y="659" type="line"/>
      <point x="184" y="320" type="line"/>
    </contour>
  </outline>
</glyph>
<glyph name="B" format="1">
  <advance width="569"/>
  <unicode hex="0042"/>
  <outline>
    <contour>
      <point x="511" y="571" type="curve" smooth="yes"/>
      <point x="511" y="481"/>
      <point x="446" y="412"/>
      <point x="354" y="384" type="curve"/>
      <point x="435" y="368"/>
      <point x="491" y="316"/>
      <point x="491" y="219" type="curve" smooth="yes"/>
      <point x="491" y="70"/>
      <point x="363" y="0"/>
      <point x="216" y="0" type="curve" smooth="yes"/>
      <point x="15" y="0" type="line"/>
      <point x="144" y="730" type="line"/>
      <point x="312" y="730" type="line" smooth="yes"/>
      <point x="446" y="730"/>
      <point x="511" y="663"/>
    </contour>
    <contour>
      <point x="464" y="569" type="curve" smooth="yes"/>
      <point x="464" y="642"/>
      <point x="414" y="690"/>
      <point x="306" y="690" type="curve" smooth="yes"/>
      <point x="182" y="690" type="line"/>
      <point x="131" y="404" type="line"/>
      <point x="264" y="404" type="line" smooth="yes"/>
      <point x="385" y="404"/>
      <point x="464" y="477"/>
    </contour>
    <contour>
      <point x="444" y="215" type="curve" smooth="yes"/>
      <point x="444" y="309"/>
      <point x="382" y="363"/>
      <point x="261" y="363" type="curve" smooth="yes"/>
      <point x="124" y="363" type="line"/>
      <point x="67" y="40" type="line"/>
      <point x="223" y="40" type="line" smooth="yes"/>
      <point x="352" y="40"/>
      <point x="444" y="97"/>
    </contour>
  </outline>
</glyph>
<glyph name="C" format="1">
  <advance width="714"/>
  <unicode hex="0043"/>
  <outline>
    <contour>
      <point x="704" y="614" type="curve"/>
      <point x="666" y="588" type="line"/>
      <point x="617" y="658"/>
      <point x="543" y="701"/>
      <point x="445" y="701" type="curve" smooth="yes"/>
      <point x="248" y="701"/>
      <point x="90" y="511"/>
      <point x="90" y="312" type="curve" smooth="yes"/>
      <point x="90" y="145"/>
      <point x="197" y="30"/>
      <point x="360" y="30" type="curve" smooth="yes"/>
      <point x="456" y="30"/>
      <point x="527" y="67"/>
      <point x="601" y="131" type="curve"/>
      <point x="628" y="104" type="line"/>
      <point x="562" y="41"/>
      <point x="471" y="-12"/>
      <point x="351" y="-12" type="curve" smooth="yes"/>
      <point x="183" y="-12"/>
      <point x="41" y="115"/>
      <point x="41" y="308" type="curve" smooth="yes"/>
      <point x="41" y="539"/>
      <point x="225" y="742"/>
      <point x="454" y="742" type="curve" smooth="yes"/>
      <point x="562" y="742"/>
      <point x="657" y="690"/>
    </contour>
  </outline>
</glyph>
<glyph name="D" format="1">
  <advance width="654"/>
  <unicode hex="0044"/>
  <outline>
    <contour>
      <point x="614" y="431" type="curve" smooth="yes"/>
      <point x="614" y="156"/>
      <point x="399" y="0"/>
      <point x="154" y="0" type="curve" smooth="yes"/>
      <point x="15" y="0" type="line"/>
      <point x="144" y="730" type="line"/>
      <point x="279" y="730" type="line" smooth="yes"/>
      <point x="477" y="730"/>
      <point x="614" y="617"/>
    </contour>
    <contour>
      <point x="566" y="420" type="curve" smooth="yes"/>
      <point x="566" y="594"/>
      <point x="454" y="690"/>
      <point x="273" y="690" type="curve" smooth="yes"/>
      <point x="182" y="690" type="line"/>
      <point x="67" y="40" type="line"/>
      <point x="157" y="40" type="line" smooth="yes"/>
      <point x="375" y="40"/>
      <point x="566" y="182"/>
    </contour>
  </outline>
</glyph>
<glyph name="E" format="1">
  <advance width="519"/>
  <unicode hex="0045"/>
  <outline>
    <contour>
      <point x="513" y="730" type="line"/>
      <point x="506" y="690" type="line"/>
      <point x="182" y="690" type="line"/>
      <point x="131" y="405" type="line"/>
      <point x="423" y="405" type="line"/>
      <point x="416" y="365" type="line"/>
      <point x="124" y="365" type="line"/>
      <point x="67" y="40" type="line"/>
      <point x="410" y="40" type="line"/>
      <point x="403" y="0" type="line"/>
      <point x="15" y="0" type="line"/>
      <point x="144" y="730" type="line"/>
    </contour>
  </outline>
</glyph>
<glyph name="F" format="1">
  <advance width="446"/>
  <unicode hex="0046"/>
  <outline>
    <contour>
      <point x="470" y="730" type="line"/>
      <point x="463" y="690" type="line"/>
      <point x="182" y="690" type="line"/>
      <point x="131" y="401" type="line"/>
      <point x="385" y="401" type="line"/>
      <point x="378" y="361" type="line"/>
      <point x="124" y="361" type="line"/>
      <point x="60" y="0" type="line"/>
      <point x="15" y="0" type="line"/>
      <point x="144" y="730" type="line"/>
    </contour>
  </outline>
</glyph>
<glyph name="G" format="1">
  <advance width="806"/>
  <unicode hex="0047"/>
  <outline>
    <contour>
      <point x="757" y="294" type="line"/>
      <point x="717" y="120"/>
      <point x="558" y="-12"/>
      <point x="362" y="-12" type="curve" smooth="yes"/>
      <point x="182" y="-12"/>
      <point x="41" y="114"/>
      <point x="41" y="306" type="curve" smooth="yes"/>
      <point x="41" y="554"/>
      <point x="247" y="742"/>
      <point x="475" y="742" type="curve" smooth="yes"/>
      <point x="606" y="742"/>
      <point x="689" y="687"/>
      <point x="742" y="615" type="curve"/>
      <point x="706" y="586" type="line"/>
      <point x="651" y="662"/>
      <point x="583" y="701"/>
      <point x="464" y="701" type="curve" smooth="yes"/>
      <point x="262" y="701"/>
      <point x="90" y="530"/>
      <point x="90" y="310" type="curve" smooth="yes"/>
      <point x="90" y="142"/>
      <point x="200" y="29"/>
      <point x="369" y="29" type="curve" smooth="yes"/>
      <point x="511" y="29"/>
      <point x="644" y="110"/>
      <point x="699" y="253" type="curve"/>
      <point x="440" y="253" type="line"/>
      <point x="447" y="294" type="line"/>
    </contour>
  </outline>
</glyph>
<glyph name="H" format="1">
  <advance width="673"/>
  <unicode hex="0048"/>
  <outline>
    <contour>
      <point x="658" y="730" type="line"/>
      <point x="529" y="0" type="line"/>
      <point x="484" y="0" type="line"/>
      <point x="548" y="362" type="line"/>
      <point x="124" y="362" type="line"/>
      <point x="60" y="0" type="line"/>
      <point x="15" y="0" type="line"/>
      <point x="144" y="730" type="line"/>
      <point x="189" y="730" type="line"/>
      <point x="131" y="402" type="line"/>
      <point x="555" y="402" type="line"/>
      <point x="613" y="730" type="line"/>
    </contour>
  </outline>
</glyph>
<glyph name="J" format="1">
  <advance width="338"/>
  <unicode hex="004A"/>
  <outline>
    <contour>
      <point x="327" y="730" type="line"/>
      <point x="232" y="193" type="line" smooth="yes"/>
      <point x="207" y="53"/>
      <point x="117" y="-6"/>
      <point x="11" y="-6" type="curve" smooth="yes"/>
      <point x="-40" y="-6" type="line"/>
      <point x="-33" y="34" type="line"/>
      <point x="19" y="34" type="line" smooth="yes"/>
      <point x="109" y="34"/>
      <point x="169" y="96"/>
      <point x="187" y="195" type="curve" smooth="yes"/>
      <point x="282" y="730" type="line"/>
    </contour>
  </outline>
</glyph>
<glyph name="K" format="1">
  <advance width="550"/>
  <unicode hex="004B"/>
  <outline>
    <contour>
      <point x="555" y="730" type="line"/>
      <point x="212" y="417" type="line"/>
      <point x="456" y="0" type="line"/>
      <point x="402" y="0" type="line"/>
      <point x="177" y="384" type="line"/>
      <point x="119" y="332" type="line"/>
      <point x="60" y="0" type="line"/>
      <point x="15" y="0" type="line"/>
      <point x="144" y="730" type="line"/>
      <point x="189" y="730" type="line"/>
      <point x="129" y="393" type="line"/>
      <point x="496" y="730" type="line"/>
    </contour>
  </outline>
</glyph>
<glyph name="L" format="1">
  <advance width="484"/>
  <unicode hex="004C"/>
  <outline>
    <contour>
      <point x="400" y="40" type="line"/>
      <point x="393" y="0" type="line"/>
      <point x="15" y="0" type="line"/>
      <point x="144" y="730" type="line"/>
      <point x="189" y="730" type="line"/>
      <point x="67" y="40" type="line"/>
    </contour>
  </outline>
</glyph>
<glyph name="M" format="1">
  <advance width="779"/>
  <unicode hex="004D"/>
  <outline>
    <contour>
      <point x="763" y="730" type="line"/>
      <point x="634" y="0" type="line"/>
      <point x="589" y="0" type="line"/>
      <point x="706" y="666" type="line"/>
      <point x="388" y="278" type="line"/>
      <point x="358" y="278" type="line"/>
      <point x="177" y="664" type="line"/>
      <point x="60" y="0" type="line"/>
      <point x="15" y="0" type="line"/>
      <point x="144" y="730" type="line"/>
      <point x="196" y="730" type="line"/>
      <point x="382" y="332" type="line"/>
      <point x="706" y="730" type="line"/>
    </contour>
  </outline>
</glyph>
<glyph name="N" format="1">
  <advance width="729"/>
  <unicode hex="004E"/>
  <outline>
    <contour>
      <point x="712" y="730" type="line"/>
      <point x="584" y="0" type="line"/>
      <point x="534" y="0" type="line"/>
      <point x="178" y="669" type="line"/>
      <point x="60" y="0" type="line"/>
      <point x="15" y="0" type="line"/>
      <point x="143" y="730" type="line"/>
      <point x="197" y="730" type="line"/>
      <point x="550" y="64" type="line"/>
      <point x="667" y="730" type="line"/>
    </contour>
  </outline>
</glyph>
<glyph name="O" format="1">
  <advance width="810"/>
  <unicode hex="004F"/>
  <outline>
    <contour>
      <point x="769" y="424" type="curve" smooth="yes"/>
      <point x="769" y="195"/>
      <point x="584" y="-12"/>
      <point x="357" y="-12" type="curve" smooth="yes"/>
      <point x="170" y="-12"/>
      <point x="41" y="128"/>
      <point x="41" y="304" type="curve" smooth="yes"/>
      <point x="41" y="533"/>
      <point x="226" y="742"/>
      <point x="453" y="742" type="curve" smooth="yes"/>
      <point x="640" y="742"/>
      <point x="769" y="600"/>
    </contour>
    <contour>
      <point x="720" y="418" type="curve" smooth="yes"/>
      <point x="720" y="585"/>
      <point x="609" y="701"/>
      <point x="448" y="701" type="curve" smooth="yes"/>
      <point x="255" y="701"/>
      <point x="90" y="521"/>
      <point x="90" y="310" type="curve" smooth="yes"/>
      <point x="90" y="143"/>
      <point x="201" y="29"/>
      <point x="362" y="29" type="curve" smooth="yes"/>
      <point x="555" y="29"/>
      <point x="720" y="207"/>
    </contour>
  </outline>
</glyph>
<glyph name="P" format="1">
  <advance width="523"/>
  <unicode hex="0050"/>
  <outline>
    <contour>
      <point x="513" y="553" type="curve" smooth="yes"/>
      <point x="513" y="421"/>
      <point x="411" y="318"/>
      <point x="244" y="318" type="curve" smooth="yes"/>
      <point x="116" y="318" type="line"/>
      <point x="60" y="0" type="line"/>
      <point x="15" y="0" type="line"/>
      <point x="144" y="730" type="line"/>
      <point x="285" y="730" type="line" smooth="yes"/>
      <point x="440" y="730"/>
      <point x="513" y="658"/>
    </contour>
    <contour>
      <point x="465" y="549" type="curve" smooth="yes"/>
      <point x="465" y="640"/>
      <point x="406" y="690"/>
      <point x="270" y="690" type="curve" smooth="yes"/>
      <point x="182" y="690" type="line"/>
      <point x="123" y="358" type="line"/>
      <point x="254" y="358" type="line" smooth="yes"/>
      <point x="394" y="358"/>
      <point x="465" y="446"/>
    </contour>
  </outline>
</glyph>
<glyph name="Q" format="1">
  <advance width="810"/>
  <unicode hex="0051"/>
  <outline>
    <contour>
      <point x="769" y="424" type="curve" smooth="yes"/>
      <point x="769" y="275"/>
      <point x="691" y="136"/>
      <point x="574" y="56" type="curve"/>
      <point x="598" y="38"/>
      <point x="623" y="25"/>
      <point x="644" y="20" type="curve"/>
      <point x="602" y="-15" type="line"/>
      <point x="579" y="-5"/>
      <point x="554" y="11"/>
      <point x="531" y="31" type="curve"/>
      <point x="479" y="3"/>
      <point x="420" y="-12"/>
      <point x="357" y="-12" type="curve" smooth="yes"/>
      <point x="170" y="-12"/>
      <point x="41" y="128"/>
      <point x="41" y="304" type="curve" smooth="yes"/>
      <point x="41" y="533"/>
      <point x="226" y="740"/>
      <point x="453" y="740" type="curve" smooth="yes"/>
      <point x="640" y="740"/>
      <point x="769" y="600"/>
    </contour>
    <contour>
      <point x="720" y="418" type="curve" smooth="yes"/>
      <point x="720" y="585"/>
      <point x="609" y="699"/>
      <point x="448" y="699" type="curve" smooth="yes"/>
      <point x="255" y="699"/>
      <point x="90" y="521"/>
      <point x="90" y="310" type="curve" smooth="yes"/>
      <point x="90" y="143"/>
      <point x="201" y="29"/>
      <point x="362" y="29" type="curve" smooth="yes"/>
      <point x="411" y="29"/>
      <point x="458" y="40"/>
      <point x="501" y="61" type="curve"/>
      <point x="483" y="82"/>
      <point x="468" y="106"/>
      <point x="458" y="129" type="curve"/>
      <point x="494" y="151" type="line"/>
      <point x="504" y="128"/>
      <point x="521" y="105"/>
      <point x="542" y="84" type="curve"/>
      <point x="647" y="152"/>
      <point x="720" y="278"/>
    </contour>
  </outline>
</glyph>
<glyph name="R" format="1">
  <advance width="542"/>
  <unicode hex="0052"/>
  <outline>
    <contour>
      <point x="521" y="553" type="curve" smooth="yes"/>
      <point x="521" y="421"/>
      <point x="419" y="319"/>
      <point x="252" y="319" type="curve" smooth="yes"/>
      <point x="200" y="319" type="line"/>
      <point x="431" y="0" type="line"/>
      <point x="376" y="0" type="line"/>
      <point x="122" y="350" type="line"/>
      <point x="60" y="0" type="line"/>
      <point x="15" y="0" type="line"/>
      <point x="144" y="730" type="line"/>
      <point x="293" y="730" type="line" smooth="yes"/>
      <point x="448" y="730"/>
      <point x="521" y="658"/>
    </contour>
    <contour>
      <point x="473" y="549" type="curve" smooth="yes"/>
      <point x="473" y="640"/>
      <point x="414" y="690"/>
      <point x="278" y="690" type="curve" smooth="yes"/>
      <point x="182" y="690" type="line"/>
      <point x="123" y="358" type="line"/>
      <point x="262" y="358" type="line" smooth="yes"/>
      <point x="402" y="358"/>
      <point x="473" y="446"/>
    </contour>
  </outline>
</glyph>
<glyph name="S" format="1">
  <advance width="482"/>
  <unicode hex="0053"/>
  <outline>
    <contour>
      <point x="474" y="654" type="curve"/>
      <point x="435" y="627" type="line"/>
      <point x="399" y="681"/>
      <point x="351" y="700"/>
      <point x="289" y="700" type="curve" smooth="yes"/>
      <point x="205" y="700"/>
      <point x="135" y="645"/>
      <point x="135" y="558" type="curve" smooth="yes"/>
      <point x="135" y="498"/>
      <point x="170" y="455"/>
      <point x="267" y="393" type="curve" smooth="yes"/>
      <point x="365" y="331"/>
      <point x="413" y="281"/>
      <point x="413" y="192" type="curve" smooth="yes"/>
      <point x="413" y="70"/>
      <point x="302" y="-12"/>
      <point x="180" y="-12" type="curve" smooth="yes"/>
      <point x="105" y="-12"/>
      <point x="33" y="24"/>
      <point x="-9" y="74" type="curve"/>
      <point x="26" y="104" type="line"/>
      <point x="64" y="62"/>
      <point x="119" y="30"/>
      <point x="185" y="30" type="curve" smooth="yes"/>
      <point x="282" y="30"/>
      <point x="364" y="92"/>
      <point x="364" y="185" type="curve" smooth="yes"/>
      <point x="364" y="257"/>
      <point x="325" y="303"/>
      <point x="225" y="365" type="curve" smooth="yes"/>
      <point x="147" y="414"/>
      <point x="87" y="466"/>
      <point x="87" y="554" type="curve" smooth="yes"/>
      <point x="87" y="661"/>
      <point x="179" y="742"/>
      <point x="293" y="742" type="curve" smooth="yes"/>
      <point x="373" y="742"/>
      <point x="433" y="714"/>
    </contour>
  </outline>
</glyph>
<glyph name="T" format="1">
  <advance width="476"/>
  <unicode hex="0054"/>
  <outline>
    <contour>
      <point x="510" y="730" type="line"/>
      <point x="503" y="690" type="line"/>
      <point x="318" y="690" type="line"/>
      <point x="196" y="0" type="line"/>
      <point x="151" y="0" type="line"/>
      <point x="273" y="690" type="line"/>
      <point x="87" y="690" type="line"/>
      <point x="94" y="730" type="line"/>
    </contour>
  </outline>
</glyph>
<glyph name="U" format="1">
  <advance width="671"/>
  <unicode hex="0055"/>
  <outline>
    <contour>
      <point x="660" y="730" type="line"/>
      <point x="578" y="265" type="line" smooth="yes"/>
      <point x="547" y="92"/>
      <point x="422" y="-12"/>
      <point x="283" y="-12" type="curve" smooth="yes"/>
      <point x="138" y="-12"/>
      <point x="27" y="94"/>
      <point x="60" y="280" type="curve" smooth="yes"/>
      <point x="139" y="730" type="line"/>
      <point x="184" y="730" type="line"/>
      <point x="105" y="280" type="line" smooth="yes"/>
      <point x="77" y="120"/>
      <point x="163" y="30"/>
      <point x="286" y="30" type="curve" smooth="yes"/>
      <point x="407" y="30"/>
      <point x="507" y="117"/>
      <point x="535" y="276" type="curve" smooth="yes"/>
      <point x="615" y="730" type="line"/>
    </contour>
  </outline>
</glyph>
<glyph name="V" format="1">
  <advance width="657"/>
  <unicode hex="0056"/>
  <outline>
    <contour>
      <point x="258" y="-29" type="line"/>
      <point x="94" y="730" type="line"/>
      <point x="140" y="730" type="line"/>
      <point x="278" y="81" type="line"/>
      <point x="643" y="730" type="line"/>
      <point x="691" y="730" type="line"/>
    </contour>
  </outline>
</glyph>
<glyph name="W" format="1">
  <advance width="928"/>
  <unicode hex="0057"/>
  <outline>
    <contour>
      <point x="962" y="730" type="line"/>
      <point x="611" y="0" type="line"/>
      <point x="577" y="0" type="line"/>
      <point x="515" y="633" type="line"/>
      <point x="226" y="0" type="line"/>
      <point x="192" y="0" type="line"/>
      <point x="94" y="730" type="line"/>
      <point x="142" y="730" type="line"/>
      <point x="224" y="88" type="line"/>
      <point x="514" y="730" type="line"/>
      <point x="546" y="730" type="line"/>
      <point x="612" y="89" type="line"/>
      <point x="915" y="730" type="line"/>
    </contour>
  </outline>
</glyph>
<glyph name="X" format="1">
  <advance width="677"/>
  <unicode hex="0058"/>
  <outline>
    <contour>
      <point x="662" y="730" type="line"/>
      <point x="368" y="396" type="line"/>
      <point x="580" y="0" type="line"/>
      <point x="530" y="0" type="line"/>
      <point x="337" y="361" type="line"/>
      <point x="20" y="0" type="line"/>
      <point x="-33" y="0" type="line"/>
      <point x="317" y="398" type="line"/>
      <point x="140" y="730" type="line"/>
      <point x="190" y="730" type="line"/>
      <point x="348" y="434" type="line"/>
      <point x="609" y="730" type="line"/>
    </contour>
  </outline>
</glyph>
<glyph name="Y" format="1">
  <advance width="628"/>
  <unicode hex="0059"/>
  <outline>
    <contour>
      <point x="664" y="730" type="line"/>
      <point x="331" y="348" type="line"/>
      <point x="270" y="0" type="line"/>
      <point x="225" y="0" type="line"/>
      <point x="287" y="349" type="line"/>
      <point x="92" y="730" type="line"/>
      <point x="142" y="730" type="line"/>
      <point x="317" y="390" type="line"/>
      <point x="609" y="730" type="line"/>
    </contour>
  </outline>
</glyph>
<glyph name="Z" format="1">
  <advance width="627"/>
  <unicode hex="005A"/>
  <outline>
    <contour>
      <point x="637" y="730" type="line"/>
      <point x="66" y="40" type="line"/>
      <point x="517" y="40" type="line"/>
      <point x="510" y="0" type="line"/>
      <point x="-21" y="0" type="line"/>
      <point x="551" y="690" type="line"/>
      <point x="153" y="690" type="line"/>
      <point x="160" y="730" type="line"/>
    </contour>
  </outline>
</glyph>
<glyph name="bracketleft" format="1">
  <advance width="255"/>
  <unicode hex="005B"/>
  <outline>
    <contour>
      <point x="289" y="730" type="line"/>
      <point x="282" y="693" type="line"/>
      <point x="175" y="693" type="line"/>
      <point x="28" y="-142" type="line"/>
      <point x="135" y="-142" type="line"/>
      <point x="128" y="-179" type="line"/>
      <point x="-22" y="-179" type="line"/>
      <point x="139" y="730" type="line"/>
    </contour>
  </outline>
</glyph>
<glyph name="backslash" format="1">
  <advance width="372"/>
  <unicode hex="005C"/>
  <outline>
    <contour>
      <point x="267" y="0" type="line"/>
      <point x="224" y="0" type="line"/>
      <point x="104" y="730" type="line"/>
      <point x="147" y="730" type="line"/>
    </contour>
  </outline>
</glyph>
<glyph name="bracketright" format="1">
  <advance width="255"/>
  <unicode hex="005D"/>
  <outline>
    <contour>
      <point x="244" y="730" type="line"/>
      <point x="83" y="-179" type="line"/>
      <point x="-67" y="-179" type="line"/>
      <point x="-60" y="-142" type="line"/>
      <point x="47" y="-142" type="line"/>
      <point x="194" y="693" type="line"/>
      <point x="87" y="693" type="line"/>
      <point x="94" y="730" type="line"/>
    </contour>
  </outline>
</glyph>
<glyph name="asciicircum" format="1">
  <advance width="465"/>
  <unicode hex="005E"/>
  <outline>
    <contour>
      <point x="425" y="369" type="line"/>
      <point x="381" y="369" type="line"/>
      <point x="285" y="685" type="line"/>
      <point x="78" y="369" type="line"/>
      <point x="33" y="369" type="line"/>
      <point x="274" y="730" type="line"/>
      <point x="312" y="730" type="line"/>
    </contour>
  </outline>
</glyph>
<glyph name="grave" format="1">
  <advance width="435"/>
  <unicode hex="0060"/>
  <outline>
    <contour>
      <point x="273" y="486" type="line"/>
      <point x="232" y="486" type="line"/>
      <point x="144" y="620" type="line"/>
      <point x="188" y="620" type="line"/>
    </contour>
  </outline>
</glyph>
<glyph name="a" format="1">
  <advance width="426"/>
  <unicode hex="0061"/>
  <outline>
    <contour>
      <point x="352" y="281" type="curve" smooth="yes"/>
      <point x="303" y="0" type="line"/>
      <point x="262" y="0" type="line"/>
      <point x="270" y="46" type="line"/>
      <point x="231" y="16"/>
      <point x="175" y="-12"/>
      <point x="112" y="-12" type="curve" smooth="yes"/>
      <point x="42" y="-12"/>
      <point x="-11" y="29"/>
      <point x="-11" y="99" type="curve" smooth="yes"/>
      <point x="-11" y="193"/>
      <point x="73" y="254"/>
      <point x="225" y="254" type="curve" smooth="yes"/>
      <point x="307" y="254" type="line"/>
      <point x="311" y="277" type="line" smooth="yes"/>
      <point x="323" y="346"/>
      <point x="287" y="375"/>
      <point x="214" y="375" type="curve" smooth="yes"/>
      <point x="165" y="375"/>
      <point x="126" y="364"/>
      <point x="89" y="344" type="curve"/>
      <point x="77" y="380" type="line"/>
      <point x="118" y="401"/>
      <point x="166" y="413"/>
      <point x="221" y="413" type="curve" smooth="yes"/>
      <point x="329" y="413"/>
      <point x="365" y="354"/>
    </contour>
    <contour>
      <point x="300" y="218" type="line"/>
      <point x="222" y="218" type="line" smooth="yes"/>
      <point x="102" y="218"/>
      <point x="32" y="180"/>
      <point x="32" y="103" type="curve" smooth="yes"/>
      <point x="32" y="57"/>
      <point x="63" y="26"/>
      <point x="119" y="26" type="curve" smooth="yes"/>
      <point x="178" y="26"/>
      <point x="237" y="57"/>
      <point x="277" y="87" type="curve"/>
    </contour>
  </outline>
</glyph>
<glyph name="b" format="1">
  <advance width="486"/>
  <unicode hex="0062"/>
  <outline>
    <contour>
      <point x="426" y="240" type="curve" smooth="yes"/>
      <point x="426" y="92"/>
      <point x="320" y="-12"/>
      <point x="200" y="-12" type="curve" smooth="yes"/>
      <point x="129" y="-12"/>
      <point x="81" y="23"/>
      <point x="53" y="68" type="curve"/>
      <point x="41" y="0" type="line"/>
      <point x="0" y="0" type="line"/>
      <point x="129" y="729" type="line"/>
      <point x="170" y="729" type="line"/>
      <point x="97" y="318" type="line"/>
      <point x="128" y="367"/>
      <point x="192" y="413"/>
      <point x="264" y="413" type="curve" smooth="yes"/>
      <point x="362" y="413"/>
      <point x="426" y="337"/>
    </contour>
    <contour>
      <point x="382" y="234" type="curve" smooth="yes"/>
      <point x="382" y="327"/>
      <point x="331" y="375"/>
      <point x="257" y="375" type="curve" smooth="yes"/>
      <point x="167" y="375"/>
      <point x="93" y="296"/>
      <point x="76" y="199" type="curve" smooth="yes"/>
      <point x="63" y="123" type="line"/>
      <point x="90" y="64"/>
      <point x="135" y="26"/>
      <point x="208" y="26" type="curve" smooth="yes"/>
      <point x="310" y="26"/>
      <point x="382" y="121"/>
    </contour>
  </outline>
</glyph>
<glyph name="c" format="1">
  <advance width="428"/>
  <unicode hex="0063"/>
  <outline>
    <contour>
      <point x="390" y="327" type="curve"/>
      <point x="353" y="303" type="line"/>
      <point x="324" y="346"/>
      <point x="288" y="375"/>
      <point x="228" y="375" type="curve" smooth="yes"/>
      <point x="117" y="375"/>
      <point x="43" y="271"/>
      <point x="43" y="176" type="curve" smooth="yes"/>
      <point x="43" y="93"/>
      <point x="96" y="26"/>
      <point x="174" y="26" type="curve" smooth="yes"/>
      <point x="237" y="26"/>
      <point x="281" y="51"/>
      <point x="325" y="100" type="curve"/>
      <point x="353" y="77" type="line"/>
      <point x="307" y="24"/>
      <point x="249" y="-12"/>
      <point x="172" y="-12" type="curve" smooth="yes"/>
      <point x="82" y="-12"/>
      <point x="0" y="53"/>
      <point x="0" y="174" type="curve" smooth="yes"/>
      <point x="0" y="291"/>
      <point x="98" y="413"/>
      <point x="226" y="413" type="curve" smooth="yes"/>
      <point x="320" y="413"/>
      <point x="360" y="369"/>
    </contour>
  </outline>
</glyph>
<glyph name="d" format="1">
  <advance width="486"/>
  <unicode hex="0064"/>
  <outline>
    <contour>
      <point x="485" y="730" type="line"/>
      <point x="355" y="-1" type="line"/>
      <point x="314" y="-1" type="line"/>
      <point x="329" y="82" type="line"/>
      <point x="298" y="33"/>
      <point x="234" y="-13"/>
      <point x="162" y="-13" type="curve" smooth="yes"/>
      <point x="64" y="-13"/>
      <point x="0" y="63"/>
      <point x="0" y="160" type="curve" smooth="yes"/>
      <point x="0" y="308"/>
      <point x="106" y="412"/>
      <point x="226" y="412" type="curve" smooth="yes"/>
      <point x="297" y="412"/>
      <point x="345" y="377"/>
      <point x="373" y="332" type="curve"/>
      <point x="444" y="730" type="line"/>
    </contour>
    <contour>
      <point x="363" y="277" type="line"/>
      <point x="336" y="336"/>
      <point x="291" y="374"/>
      <point x="218" y="374" type="curve" smooth="yes"/>
      <point x="116" y="374"/>
      <point x="44" y="279"/>
      <point x="44" y="166" type="curve" smooth="yes"/>
      <point x="44" y="73"/>
      <point x="95" y="25"/>
      <point x="169" y="25" type="curve" smooth="yes"/>
      <point x="259" y="25"/>
      <point x="333" y="104"/>
      <point x="350" y="201" type="curve" smooth="yes"/>
    </contour>
  </outline>
</glyph>
<glyph name="e" format="1">
  <advance width="444"/>
  <unicode hex="0065"/>
  <outline>
    <contour>
      <point x="389" y="245" type="curve" smooth="yes"/>
      <point x="389" y="232"/>
      <point x="388" y="215"/>
      <point x="387" y="206" type="curve"/>
      <point x="45" y="206" type="line"/>
      <point x="44" y="196"/>
      <point x="43" y="186"/>
      <point x="43" y="175" type="curve" smooth="yes"/>
      <point x="43" y="88"/>
      <point x="92" y="26"/>
      <point x="189" y="26" type="curve" smooth="yes"/>
      <point x="243" y="26"/>
      <point x="290" y="46"/>
      <point x="328" y="76" type="curve"/>
      <point x="353" y="49" type="line"/>
      <point x="319" y="20"/>
      <point x="260" y="-12"/>
      <point x="180" y="-12" type="curve" smooth="yes"/>
      <point x="72" y="-12"/>
      <point x="-1" y="58"/>
      <point x="-1" y="170" type="curve" smooth="yes"/>
      <point x="-1" y="308"/>
      <point x="99" y="413"/>
      <point x="224" y="413" type="curve" smooth="yes"/>
      <point x="338" y="413"/>
      <point x="389" y="331"/>
    </contour>
    <contour>
      <point x="344" y="242" type="line"/>
      <point x="344" y="317"/>
      <point x="307" y="375"/>
      <point x="221" y="375" type="curve" smooth="yes"/>
      <point x="141" y="375"/>
      <point x="75" y="323"/>
      <point x="52" y="242" type="curve"/>
    </contour>
  </outline>
</glyph>
<glyph name="g" format="1">
  <advance width="486"/>
  <unicode hex="0067"/>
  <outline>
    <contour>
      <point x="427" y="401" type="line"/>
      <point x="356" y="-2" type="line" smooth="yes"/>
      <point x="335" y="-123"/>
      <point x="251" y="-191"/>
      <point x="141" y="-191" type="curve" smooth="yes"/>
      <point x="68" y="-191"/>
      <point x="8" y="-165"/>
      <point x="-33" y="-112" type="curve"/>
      <point x="0" y="-87" type="line"/>
      <point x="36" y="-131"/>
      <point x="81" y="-153"/>
      <point x="145" y="-153" type="curve" smooth="yes"/>
      <point x="232" y="-153"/>
      <point x="297" y="-101"/>
      <point x="314" y="-5" type="curve" smooth="yes"/>
      <point x="330" y="83" type="line"/>
      <point x="299" y="34"/>
      <point x="235" y="-12"/>
      <point x="163" y="-12" type="curve" smooth="yes"/>
      <point x="65" y="-12"/>
      <point x="1" y="64"/>
      <point x="1" y="161" type="curve" smooth="yes"/>
      <point x="1" y="309"/>
      <point x="107" y="413"/>
      <point x="227" y="413" type="curve" smooth="yes"/>
      <point x="298" y="413"/>
      <point x="346" y="378"/>
      <point x="374" y="333" type="curve"/>
      <point x="386" y="401" type="line"/>
    </contour>
    <contour>
      <point x="364" y="278" type="line"/>
      <point x="337" y="337"/>
      <point x="292" y="375"/>
      <point x="219" y="375" type="curve" smooth="yes"/>
      <point x="117" y="375"/>
      <point x="45" y="280"/>
      <point x="45" y="167" type="curve" smooth="yes"/>
      <point x="45" y="74"/>
      <point x="96" y="26"/>
      <point x="170" y="26" type="curve" smooth="yes"/>
      <point x="260" y="26"/>
      <point x="334" y="105"/>
      <point x="351" y="202" type="curve" smooth="yes"/>
    </contour>
  </outline>
</glyph>
<glyph name="h" format="1">
  <advance width="448"/>
  <unicode hex="0068"/>
  <outline>
    <contour>
      <point x="370" y="256" type="curve" smooth="yes"/>
      <point x="325" y="0" type="line"/>
      <point x="284" y="0" type="line"/>
      <point x="328" y="250" type="line" smooth="yes"/>
      <point x="341" y="325"/>
      <point x="309" y="377"/>
      <point x="235" y="377" type="curve" smooth="yes"/>
      <point x="161" y="377"/>
      <point x="95" y="307"/>
      <point x="84" y="246" type="curve" smooth="yes"/>
      <point x="41" y="0" type="line"/>
      <point x="0" y="0" type="line"/>
      <point x="129" y="730" type="line"/>
      <point x="170" y="730" type="line"/>
      <point x="100" y="335" type="line"/>
      <point x="131" y="380"/>
      <point x="185" y="413"/>
      <point x="244" y="413" type="curve" smooth="yes"/>
      <point x="345" y="413"/>
      <point x="385" y="344"/>
    </contour>
  </outline>
</glyph>
<glyph name="i" format="1">
  <advance width="171"/>
  <unicode hex="0069"/>
  <outline>
    <contour>
      <point x="146" y="593" type="line"/>
      <point x="131" y="513" type="line"/>
      <point x="90" y="513" type="line"/>
      <point x="105" y="593" type="line"/>
    </contour>
    <contour>
      <point x="112" y="401" type="line"/>
      <point x="41" y="0" type="line"/>
      <point x="0" y="0" type="line"/>
      <point x="71" y="401" type="line"/>
    </contour>
  </outline>
</glyph>
<glyph name="j" format="1">
  <advance width="171"/>
  <unicode hex="006A"/>
  <outline>
    <contour>
      <point x="146" y="593" type="line"/>
      <point x="131" y="513" type="line"/>
      <point x="90" y="513" type="line"/>
      <point x="105" y="593" type="line"/>
    </contour>
    <contour>
      <point x="112" y="401" type="line"/>
      <point x="18" y="-131" type="line" smooth="yes"/>
      <point x="11" y="-168"/>
      <point x="-20" y="-188"/>
      <point x="-58" y="-188" type="curve" smooth="yes"/>
      <point x="-76" y="-188"/>
      <point x="-91" y="-186"/>
      <point x="-101" y="-183" type="curve"/>
      <point x="-103" y="-147" type="line"/>
      <point x="-93" y="-151"/>
      <point x="-77" y="-153"/>
      <point x="-63" y="-153" type="curve" smooth="yes"/>
      <point x="-42" y="-153"/>
      <point x="-25" y="-144"/>
      <point x="-21" y="-120" type="curve" smooth="yes"/>
      <point x="71" y="401" type="line"/>
    </contour>
  </outline>
</glyph>
<glyph name="k" format="1">
  <advance width="412"/>
  <unicode hex="006B"/>
  <outline>
    <contour>
      <point x="378" y="401" type="line"/>
      <point x="161" y="228" type="line"/>
      <point x="330" y="0" type="line"/>
      <point x="277" y="0" type="line"/>
      <point x="129" y="202" type="line"/>
      <point x="68" y="154" type="line"/>
      <point x="41" y="0" type="line"/>
      <point x="0" y="0" type="line"/>
      <point x="129" y="730" type="line"/>
      <point x="170" y="730" type="line"/>
      <point x="77" y="205" type="line"/>
      <point x="317" y="401" type="line"/>
    </contour>
  </outline>
</glyph>
<glyph name="m" format="1">
  <advance width="698"/>
  <unicode hex="006D"/>
  <outline>
    <contour>
      <point x="620" y="256" type="curve" smooth="yes"/>
      <point x="575" y="0" type="line"/>
      <point x="534" y="0" type="line"/>
      <point x="578" y="250" type="line" smooth="yes"/>
      <point x="591" y="325"/>
      <point x="572" y="377"/>
      <point x="498" y="377" type="curve" smooth="yes"/>
      <point x="424" y="377"/>
      <point x="362" y="307"/>
      <point x="351" y="246" type="curve" smooth="yes"/>
      <point x="308" y="0" type="line"/>
      <point x="267" y="0" type="line"/>
      <point x="311" y="250" type="line" smooth="yes"/>
      <point x="324" y="325"/>
      <point x="305" y="377"/>
      <point x="231" y="377" type="curve" smooth="yes"/>
      <point x="157" y="377"/>
      <point x="95" y="307"/>
      <point x="84" y="246" type="curve" smooth="yes"/>
      <point x="41" y="0" type="line"/>
      <point x="0" y="0" type="line"/>
      <point x="71" y="401" type="line"/>
      <point x="112" y="401" type="line"/>
      <point x="100" y="335" type="line"/>
      <point x="132" y="381"/>
      <point x="181" y="413"/>
      <point x="240" y="413" type="curve" smooth="yes"/>
      <point x="308" y="413"/>
      <point x="338" y="379"/>
      <point x="351" y="327" type="curve"/>
      <point x="389" y="376"/>
      <point x="439" y="413"/>
      <point x="507" y="413" type="curve" smooth="yes"/>
      <point x="602" y="413"/>
      <point x="636" y="345"/>
    </contour>
  </outline>
</glyph>
<glyph name="o" format="1">
  <advance width="490"/>
  <unicode hex="006F"/>
  <outline>
    <contour>
      <point x="429" y="234" type="curve" smooth="yes"/>
      <point x="429" y="96"/>
      <point x="320" y="-12"/>
      <point x="189" y="-12" type="curve" smooth="yes"/>
      <point x="83" y="-12"/>
      <point x="2" y="61"/>
      <point x="2" y="167" type="curve" smooth="yes"/>
      <point x="2" y="305"/>
      <point x="111" y="413"/>
      <point x="242" y="413" type="curve" smooth="yes"/>
      <point x="348" y="413"/>
      <point x="429" y="340"/>
    </contour>
    <contour>
      <point x="385" y="228" type="curve" smooth="yes"/>
      <point x="385" y="308"/>
      <point x="332" y="375"/>
      <point x="238" y="375" type="curve" smooth="yes"/>
      <point x="128" y="375"/>
      <point x="46" y="284"/>
      <point x="46" y="173" type="curve" smooth="yes"/>
      <point x="46" y="93"/>
      <point x="99" y="26"/>
      <point x="193" y="26" type="curve" smooth="yes"/>
      <point x="303" y="26"/>
      <point x="385" y="117"/>
    </contour>
  </outline>
</glyph>
<glyph name="q" format="1">
  <advance width="486"/>
  <unicode hex="0071"/>
  <outline>
    <contour>
      <point x="427" y="401" type="line"/>
      <point x="324" y="-179" type="line"/>
      <point x="283" y="-179" type="line"/>
      <point x="330" y="83" type="line"/>
      <point x="299" y="34"/>
      <point x="235" y="-12"/>
      <point x="163" y="-12" type="curve" smooth="yes"/>
      <point x="65" y="-12"/>
      <point x="1" y="64"/>
      <point x="1" y="161" type="curve" smooth="yes"/>
      <point x="1" y="309"/>
      <point x="107" y="413"/>
      <point x="227" y="413" type="curve" smooth="yes"/>
      <point x="298" y="413"/>
      <point x="346" y="378"/>
      <point x="374" y="333" type="curve"/>
      <point x="386" y="401" type="line"/>
    </contour>
    <contour>
      <point x="364" y="278" type="line"/>
      <point x="337" y="337"/>
      <point x="292" y="375"/>
      <point x="219" y="375" type="curve" smooth="yes"/>
      <point x="117" y="375"/>
      <point x="45" y="280"/>
      <point x="45" y="167" type="curve" smooth="yes"/>
      <point x="45" y="74"/>
      <point x="96" y="26"/>
      <point x="170" y="26" type="curve" smooth="yes"/>
      <point x="260" y="26"/>
      <point x="334" y="105"/>
      <point x="351" y="202" type="curve" smooth="yes"/>
    </contour>
  </outline>
</glyph>
<glyph name="r" format="1">
  <advance width="301"/>
  <unicode hex="0072"/>
  <outline>
    <contour>
      <point x="293" y="383" type="curve"/>
      <point x="263" y="352" type="line"/>
      <point x="249" y="368"/>
      <point x="233" y="377"/>
      <point x="208" y="377" type="curve" smooth="yes"/>
      <point x="155" y="377"/>
      <point x="95" y="306"/>
      <point x="84" y="244" type="curve" smooth="yes"/>
      <point x="41" y="0" type="line"/>
      <point x="0" y="0" type="line"/>
      <point x="71" y="401" type="line"/>
      <point x="112" y="401" type="line"/>
      <point x="101" y="341" type="line"/>
      <point x="126" y="380"/>
      <point x="170" y="413"/>
      <point x="219" y="413" type="curve" smooth="yes"/>
      <point x="251" y="413"/>
      <point x="273" y="406"/>
    </contour>
  </outline>
</glyph>
<glyph name="s" format="1">
  <advance width="358"/>
  <unicode hex="0073"/>
  <outline>
    <contour>
      <point x="305" y="360" type="curve"/>
      <point x="276" y="331" type="line"/>
      <point x="247" y="358"/>
      <point x="211" y="375"/>
      <point x="169" y="375" type="curve" smooth="yes"/>
      <point x="116" y="375"/>
      <point x="76" y="347"/>
      <point x="76" y="305" type="curve" smooth="yes"/>
      <point x="76" y="270"/>
      <point x="100" y="250"/>
      <point x="162" y="227" type="curve" smooth="yes"/>
      <point x="237" y="199"/>
      <point x="274" y="172"/>
      <point x="274" y="109" type="curve" smooth="yes"/>
      <point x="274" y="32"/>
      <point x="197" y="-9"/>
      <point x="125" y="-9" type="curve" smooth="yes"/>
      <point x="66" y="-9"/>
      <point x="19" y="13"/>
      <point x="-16" y="41" type="curve"/>
      <point x="8" y="74" type="line"/>
      <point x="42" y="47"/>
      <point x="83" y="27"/>
      <point x="126" y="27" type="curve" smooth="yes"/>
      <point x="183" y="27"/>
      <point x="231" y="55"/>
      <point x="231" y="103" type="curve" smooth="yes"/>
      <point x="231" y="145"/>
      <point x="210" y="165"/>
      <point x="132" y="194" type="curve" smooth="yes"/>
      <point x="78" y="214"/>
      <point x="34" y="241"/>
      <point x="34" y="301" type="curve" smooth="yes"/>
      <point x="34" y="369"/>
      <point x="99" y="410"/>
      <point x="174" y="410" type="curve" smooth="yes"/>
      <point x="226" y="410"/>
      <point x="271" y="393"/>
    </contour>
  </outline>
</glyph>
<glyph name="t" format="1">
  <advance width="226"/>
  <unicode hex="0074"/>
  <outline>
    <contour>
      <point x="197" y="401" type="line"/>
      <point x="190" y="365" type="line"/>
      <point x="113" y="365" type="line"/>
      <point x="64" y="84" type="line" smooth="yes"/>
      <point x="60" y="61"/>
      <point x="72" y="36"/>
      <point x="108" y="36" type="curve" smooth="yes"/>
      <point x="143" y="36" type="line"/>
      <point x="117" y="0" type="line"/>
      <point x="98" y="0" type="line" smooth="yes"/>
      <point x="43" y="0"/>
      <point x="14" y="36"/>
      <point x="23" y="85" type="curve" smooth="yes"/>
      <point x="72" y="365" type="line"/>
      <point x="9" y="365" type="line"/>
      <point x="16" y="401" type="line"/>
      <point x="79" y="401" type="line"/>
      <point x="107" y="559" type="line"/>
      <point x="153" y="589" type="line"/>
      <point x="120" y="401" type="line"/>
    </contour>
  </outline>
</glyph>
<glyph name="u" format="1">
  <advance width="448"/>
  <unicode hex="0075"/>
  <outline>
    <contour>
      <point x="389" y="401" type="line"/>
      <point x="318" y="0" type="line"/>
      <point x="277" y="0" type="line"/>
      <point x="289" y="66" type="line"/>
      <point x="258" y="21"/>
      <point x="204" y="-12"/>
      <point x="145" y="-12" type="curve" smooth="yes"/>
      <point x="44" y="-12"/>
      <point x="4" y="57"/>
      <point x="19" y="145" type="curve" smooth="yes"/>
      <point x="64" y="401" type="line"/>
      <point x="105" y="401" type="line"/>
      <point x="61" y="151" type="line" smooth="yes"/>
      <point x="48" y="76"/>
      <point x="80" y="24"/>
      <point x="154" y="24" type="curve" smooth="yes"/>
      <point x="228" y="24"/>
      <point x="294" y="94"/>
      <point x="305" y="155" type="curve" smooth="yes"/>
      <point x="348" y="401" type="line"/>
    </contour>
  </outline>
</glyph>
<glyph name="v" format="1">
  <advance width="403"/>
  <unicode hex="0076"/>
  <outline>
    <contour>
      <point x="392" y="401" type="line"/>
      <point x="133" y="-23" type="line"/>
      <point x="23" y="401" type="line"/>
      <point x="65" y="401" type="line"/>
      <point x="149" y="67" type="line"/>
      <point x="347" y="401" type="line"/>
    </contour>
  </outline>
</glyph>
<glyph name="w" format="1">
  <advance width="627"/>
  <unicode hex="0077"/>
  <outline>
    <contour>
      <point x="616" y="401" type="line"/>
      <point x="374" y="-23" type="line"/>
      <point x="302" y="296" type="line"/>
      <point x="119" y="-23" type="line"/>
      <point x="23" y="401" type="line"/>
      <point x="67" y="401" type="line"/>
      <point x="138" y="78" type="line"/>
      <point x="321" y="406" type="line"/>
      <point x="393" y="81" type="line"/>
      <point x="571" y="401" type="line"/>
    </contour>
  </outline>
</glyph>
<glyph name="x" format="1">
  <advance width="405"/>
  <unicode hex="0078"/>
  <outline>
    <contour>
      <point x="365" y="401" type="line"/>
      <point x="197" y="216" type="line"/>
      <point x="320" y="0" type="line"/>
      <point x="273" y="0" type="line"/>
      <point x="170" y="187" type="line"/>
      <point x="4" y="0" type="line"/>
      <point x="-45" y="0" type="line"/>
      <point x="152" y="219" type="line"/>
      <point x="50" y="401" type="line"/>
      <point x="95" y="401" type="line"/>
      <point x="179" y="248" type="line"/>
      <point x="315" y="401" type="line"/>
    </contour>
  </outline>
</glyph>
<glyph name="y" format="1">
  <advance width="396"/>
  <unicode hex="0079"/>
  <outline>
    <contour>
      <point x="385" y="401" type="line"/>
      <point x="95" y="-107" type="line" smooth="yes"/>
      <point x="68" y="-155"/>
      <point x="33" y="-189"/>
      <point x="-17" y="-189" type="curve" smooth="yes"/>
      <point x="-42" y="-189"/>
      <point x="-60" y="-185"/>
      <point x="-74" y="-177" type="curve"/>
      <point x="-67" y="-137" type="line"/>
      <point x="-53" y="-147"/>
      <point x="-39" y="-152"/>
      <point x="-17" y="-152" type="curve" smooth="yes"/>
      <point x="19" y="-152"/>
      <point x="46" y="-121"/>
      <point x="66" y="-85" type="curve" smooth="yes"/>
      <point x="117" y="5" type="line"/>
      <point x="23" y="401" type="line"/>
      <point x="65" y="401" type="line"/>
      <point x="146" y="50" type="line"/>
      <point x="340" y="401" type="line"/>
    </contour>
  </outline>
</glyph>
<glyph name="z" format="1">
  <advance width="418"/>
  <unicode hex="007A"/>
  <outline>
    <contour>
      <point x="396" y="401" type="line"/>
      <point x="43" y="37" type="line"/>
      <point x="314" y="37" type="line"/>
      <point x="307" y="0" type="line"/>
      <point x="-44" y="0" type="line"/>
      <point x="308" y="364" type="line"/>
      <point x="58" y="364" type="line"/>
      <point x="65" y="401" type="line"/>
    </contour>
  </outline>
</glyph>
<glyph name="braceleft" format="1">
  <advance width="271"/>
  <unicode hex="007B"/>
  <outline>
    <contour>
      <point x="327" y="749" type="curve"/>
      <point x="320" y="712" type="line"/>
      <point x="233" y="669"/>
      <point x="212" y="624"/>
      <point x="190" y="495" type="curve" smooth="yes"/>
      <point x="169" y="376"/>
      <point x="155" y="307"/>
      <point x="83" y="285" type="curve"/>
      <point x="121" y="273"/>
      <point x="132" y="242"/>
      <point x="132" y="196" type="curve" smooth="yes"/>
      <point x="132" y="142"/>
      <point x="110" y="47"/>
      <point x="107" y="-10" type="curve" smooth="yes"/>
      <point x="103" y="-83"/>
      <point x="118" y="-112"/>
      <point x="169" y="-144" type="curve"/>
      <point x="163" y="-178" type="line"/>
      <point x="82" y="-143"/>
      <point x="63" y="-95"/>
      <point x="68" y="-6" type="curve" smooth="yes"/>
      <point x="71" y="60"/>
      <point x="92" y="138"/>
      <point x="93" y="193" type="curve" smooth="yes"/>
      <point x="93" y="241"/>
      <point x="77" y="268"/>
      <point x="24" y="268" type="curve"/>
      <point x="30" y="304" type="line"/>
      <point x="114" y="304"/>
      <point x="129" y="371"/>
      <point x="148" y="482" type="curve" smooth="yes"/>
      <point x="178" y="654"/>
      <point x="209" y="707"/>
    </contour>
  </outline>
</glyph>
<glyph name="bar" format="1">
  <advance width="203"/>
  <unicode hex="007C"/>
  <outline>
    <contour>
      <point x="187" y="730" type="line"/>
      <point x="26" y="-179" type="line"/>
      <point x="-17" y="-179" type="line"/>
      <point x="144" y="730" type="line"/>
    </contour>
  </outline>
</glyph>
<glyph name="braceright" format="1">
  <advance width="271"/>
  <unicode hex="007D"/>
  <outline>
    <contour>
      <point x="225" y="303" type="curve"/>
      <point x="219" y="267" type="line"/>
      <point x="135" y="267"/>
      <point x="120" y="199"/>
      <point x="101" y="89" type="curve" smooth="yes"/>
      <point x="71" y="-83"/>
      <point x="40" y="-136"/>
      <point x="-77" y="-178" type="curve"/>
      <point x="-71" y="-141" type="line"/>
      <point x="16" y="-99"/>
      <point x="38" y="-53"/>
      <point x="60" y="76" type="curve" smooth="yes"/>
      <point x="81" y="194"/>
      <point x="94" y="264"/>
      <point x="166" y="286" type="curve"/>
      <point x="128" y="298"/>
      <point x="117" y="330"/>
      <point x="117" y="376" type="curve" smooth="yes"/>
      <point x="117" y="439"/>
      <point x="146" y="546"/>
      <point x="145" y="608" type="curve" smooth="yes"/>
      <point x="145" y="665"/>
      <point x="127" y="687"/>
      <point x="80" y="715" type="curve"/>
      <point x="86" y="749" type="line"/>
      <point x="157" y="716"/>
      <point x="185" y="678"/>
      <point x="185" y="606" type="curve" smooth="yes"/>
      <point x="186" y="530"/>
      <point x="157" y="439"/>
      <point x="157" y="376" type="curve" smooth="yes"/>
      <point x="157" y="330"/>
      <point x="173" y="303"/>
    </contour>
  </outline>
</glyph>
<glyph name="asciitilde" format="1">
  <advance width="460"/>
  <unicode hex="007E"/>
  <outline>
    <contour>
      <point x="402" y="434" type="line"/>
      <point x="389" y="335"/>
      <point x="351" y="299"/>
      <point x="303" y="299" type="curve" smooth="yes"/>
      <point x="268" y="299"/>
      <point x="239" y="325"/>
      <point x="214" y="349" type="curve" smooth="yes"/>
      <point x="191" y="372"/>
      <point x="168" y="397"/>
      <point x="140" y="397" type="curve" smooth="yes"/>
      <point x="105" y="397"/>
      <point x="92" y="356"/>
      <point x="86" y="303" type="curve"/>
      <point x="44" y="303" type="line"/>
      <point x="54" y="381"/>
      <point x="78" y="436"/>
      <point x="145" y="436" type="curve" smooth="yes"/>
      <point x="180" y="436"/>
      <point x="209" y="407"/>
      <point x="235" y="383" type="curve" smooth="yes"/>
      <point x="259" y="361"/>
      <point x="281" y="338"/>
      <point x="307" y="338" type="curve" smooth="yes"/>
      <point x="330" y="338"/>
      <point x="353" y="366"/>
      <point x="359" y="434" type="curve"/>
    </contour>
  </outline>
</glyph>
<glyph name="exclamdown" format="1">
  <advance width="189"/>
  <unicode hex="00A1"/>
  <outline>
    <contour>
      <point x="181" y="730" type="line"/>
      <point x="166" y="646" type="line"/>
      <point x="121" y="646" type="line"/>
      <point x="136" y="730" type="line"/>
    </contour>
    <contour>
      <point x="148" y="601" type="line"/>
      <point x="128" y="430" type="line"/>
      <point x="52" y="0" type="line"/>
      <point x="7" y="0" type="line"/>
      <point x="83" y="430" type="line"/>
      <point x="123" y="601" type="line"/>
    </contour>
  </outline>
</glyph>
<glyph name="cent" format="1">
  <advance width="440"/>
  <unicode hex="00A2"/>
  <outline>
    <contour>
      <point x="392" y="337" type="curve"/>
      <point x="356" y="313" type="line"/>
      <point x="331" y="351"/>
      <point x="299" y="377"/>
      <point x="251" y="383" type="curve"/>
      <point x="190" y="36" type="line"/>
      <point x="246" y="40"/>
      <point x="286" y="65"/>
      <point x="327" y="110" type="curve"/>
      <point x="355" y="87" type="line"/>
      <point x="311" y="36"/>
      <point x="256" y="1"/>
      <point x="183" y="-2" type="curve"/>
      <point x="172" y="-69" type="line"/>
      <point x="136" y="-69" type="line"/>
      <point x="148" y="0" type="line"/>
      <point x="69" y="11"/>
      <point x="2" y="75"/>
      <point x="2" y="184" type="curve" smooth="yes"/>
      <point x="2" y="299"/>
      <point x="97" y="419"/>
      <point x="222" y="423" type="curve"/>
      <point x="237" y="505" type="line"/>
      <point x="273" y="505" type="line"/>
      <point x="258" y="421" type="line"/>
      <point x="331" y="413"/>
      <point x="365" y="374"/>
    </contour>
    <contour>
      <point x="216" y="384" type="line"/>
      <point x="113" y="376"/>
      <point x="45" y="277"/>
      <point x="45" y="186" type="curve" smooth="yes"/>
      <point x="45" y="111"/>
      <point x="89" y="49"/>
      <point x="155" y="38" type="curve"/>
    </contour>
  </outline>
</glyph>
<glyph name="sterling" format="1">
  <advance width="542"/>
  <unicode hex="00A3"/>
  <outline>
    <contour>
      <point x="520" y="560" type="curve"/>
      <point x="476" y="560" type="line"/>
      <point x="477" y="564"/>
      <point x="478" y="569"/>
      <point x="478" y="578" type="curve" smooth="yes"/>
      <point x="478" y="649"/>
      <point x="433" y="703"/>
      <point x="344" y="703" type="curve" smooth="yes"/>
      <point x="233" y="703"/>
      <point x="167" y="631"/>
      <point x="167" y="521" type="curve" smooth="yes"/>
      <point x="167" y="464"/>
      <point x="194" y="418"/>
      <point x="223" y="365" type="curve"/>
      <point x="417" y="365" type="line"/>
      <point x="412" y="338" type="line"/>
      <point x="238" y="338" type="line"/>
      <point x="253" y="310"/>
      <point x="264" y="282"/>
      <point x="270" y="257" type="curve"/>
      <point x="398" y="257" type="line"/>
      <point x="393" y="229" type="line"/>
      <point x="274" y="229" type="line"/>
      <point x="275" y="225"/>
      <point x="275" y="220"/>
      <point x="275" y="215" type="curve" smooth="yes"/>
      <point x="275" y="168"/>
      <point x="261" y="125"/>
      <point x="241" y="89" type="curve"/>
      <point x="279" y="55"/>
      <point x="305" y="29"/>
      <point x="343" y="29" type="curve" smooth="yes"/>
      <point x="402" y="29"/>
      <point x="425" y="84"/>
      <point x="432" y="148" type="curve"/>
      <point x="473" y="148" type="line"/>
      <point x="463" y="59"/>
      <point x="427" y="-12"/>
      <point x="340" y="-12" type="curve" smooth="yes"/>
      <point x="288" y="-12"/>
      <point x="255" y="21"/>
      <point x="217" y="58" type="curve"/>
      <point x="183" y="15"/>
      <point x="138" y="-12"/>
      <point x="89" y="-12" type="curve" smooth="yes"/>
      <point x="41" y="-12"/>
      <point x="-1" y="15"/>
      <point x="-1" y="67" type="curve" smooth="yes"/>
      <point x="-1" y="120"/>
      <point x="46" y="154"/>
      <point x="104" y="154" type="curve" smooth="yes"/>
      <point x="139" y="154"/>
      <point x="178" y="139"/>
      <point x="210" y="112" type="curve"/>
      <point x="224" y="140"/>
      <point x="233" y="172"/>
      <point x="233" y="205" type="curve" smooth="yes"/>
      <point x="233" y="213"/>
      <point x="232" y="222"/>
      <point x="231" y="229" type="curve"/>
      <point x="69" y="229" type="line"/>
      <point x="74" y="257" type="line"/>
      <point x="223" y="257" type="line"/>
      <point x="216" y="283"/>
      <point x="203" y="310"/>
      <point x="187" y="338" type="curve"/>
      <point x="89" y="338" type="line"/>
      <point x="93" y="365" type="line"/>
      <point x="172" y="365" type="line"/>
      <point x="142" y="418"/>
      <point x="121" y="463"/>
      <point x="121" y="519" type="curve" smooth="yes"/>
      <point x="121" y="649"/>
      <point x="207" y="742"/>
      <point x="348" y="742" type="curve" smooth="yes"/>
      <point x="457" y="742"/>
      <point x="523" y="679"/>
      <point x="523" y="590" type="curve" smooth="yes"/>
      <point x="523" y="578"/>
      <point x="521" y="566"/>
    </contour>
    <contour>
      <point x="191" y="81" type="curve"/>
      <point x="162" y="106"/>
      <point x="128" y="120"/>
      <point x="99" y="120" type="curve" smooth="yes"/>
      <point x="63" y="120"/>
      <point x="36" y="100"/>
      <point x="36" y="70" type="curve" smooth="yes"/>
      <point x="36" y="43"/>
      <point x="55" y="19"/>
      <point x="94" y="19" type="curve" smooth="yes"/>
      <point x="129" y="19"/>
      <point x="167" y="46"/>
    </contour>
  </outline>
</glyph>
<glyph name="yen" format="1">
  <advance width="609"/>
  <unicode hex="00A5"/>
  <outline>
    <contour>
      <point x="253" y="0" type="line"/>
      <point x="210" y="0" type="line"/>
      <point x="232" y="122" type="line"/>
      <point x="48" y="122" type="line"/>
      <point x="53" y="149" type="line"/>
      <point x="236" y="149" type="line"/>
      <point x="251" y="236" type="line"/>
      <point x="68" y="236" type="line"/>
      <point x="73" y="263" type="line"/>
      <point x="256" y="263" type="line"/>
      <point x="272" y="352" type="line"/>
      <point x="78" y="730" type="line"/>
      <point x="126" y="730" type="line"/>
      <point x="294" y="405" type="line"/>
      <point x="299" y="393" type="line"/>
      <point x="310" y="405" type="line"/>
      <point x="592" y="730" type="line"/>
      <point x="641" y="730" type="line"/>
      <point x="315" y="354" type="line"/>
      <point x="299" y="263" type="line"/>
      <point x="475" y="263" type="line"/>
      <point x="470" y="236" type="line"/>
      <point x="294" y="236" type="line"/>
      <point x="279" y="149" type="line"/>
      <point x="455" y="149" type="line"/>
      <point x="450" y="122" type="line"/>
      <point x="274" y="122" type="line"/>
    </contour>
  </outline>
</glyph>
<glyph name="brokenbar" format="1">
  <advance width="203"/>
  <unicode hex="00A6"/>
  <outline>
    <contour>
      <point x="82" y="351" type="line"/>
      <point x="149" y="730" type="line"/>
      <point x="192" y="730" type="line"/>
      <point x="125" y="351" type="line"/>
    </contour>
    <contour>
      <point x="98" y="200" type="line"/>
      <point x="31" y="-179" type="line"/>
      <point x="-12" y="-179" type="line"/>
      <point x="55" y="200" type="line"/>
    </contour>
  </outline>
</glyph>
<glyph name="section" format="1">
  <advance width="626"/>
  <unicode hex="00A7"/>
  <outline>
    <contour>
      <point x="588" y="666" type="curve"/>
      <point x="560" y="635" type="line"/>
      <point x="524" y="670"/>
      <point x="463" y="703"/>
      <point x="375" y="703" type="curve" smooth="yes"/>
      <point x="272" y="703"/>
      <point x="198" y="652"/>
      <point x="198" y="582" type="curve" smooth="yes"/>
      <point x="198" y="533"/>
      <point x="239" y="506"/>
      <point x="303" y="480" type="curve" smooth="yes"/>
      <point x="329" y="470"/>
      <point x="422" y="437"/>
      <point x="453" y="424" type="curve" smooth="yes"/>
      <point x="527" y="393"/>
      <point x="575" y="350"/>
      <point x="575" y="275" type="curve" smooth="yes"/>
      <point x="575" y="180"/>
      <point x="500" y="108"/>
      <point x="415" y="64" type="curve"/>
      <point x="439" y="43"/>
      <point x="454" y="16"/>
      <point x="454" y="-18" type="curve" smooth="yes"/>
      <point x="454" y="-126"/>
      <point x="350" y="-187"/>
      <point x="223" y="-187" type="curve" smooth="yes"/>
      <point x="124" y="-187"/>
      <point x="57" y="-150"/>
      <point x="18" y="-111" type="curve"/>
      <point x="46" y="-80" type="line"/>
      <point x="82" y="-115"/>
      <point x="143" y="-148"/>
      <point x="231" y="-148" type="curve" smooth="yes"/>
      <point x="333" y="-148"/>
      <point x="408" y="-97"/>
      <point x="408" y="-27" type="curve" smooth="yes"/>
      <point x="408" y="20"/>
      <point x="372" y="48"/>
      <point x="313" y="72" type="curve" smooth="yes"/>
      <point x="274" y="88"/>
      <point x="223" y="105"/>
      <point x="162" y="127" type="curve" smooth="yes"/>
      <point x="71" y="160"/>
      <point x="31" y="222"/>
      <point x="31" y="290" type="curve" smooth="yes"/>
      <point x="31" y="364"/>
      <point x="83" y="438"/>
      <point x="192" y="491" type="curve"/>
      <point x="168" y="512"/>
      <point x="152" y="539"/>
      <point x="152" y="573" type="curve" smooth="yes"/>
      <point x="152" y="681"/>
      <point x="256" y="742"/>
      <point x="383" y="742" type="curve" smooth="yes"/>
      <point x="482" y="742"/>
      <point x="549" y="705"/>
    </contour>
    <contour>
      <point x="530" y="266" type="curve" smooth="yes"/>
      <point x="530" y="327"/>
      <point x="488" y="362"/>
      <point x="425" y="388" type="curve" smooth="yes"/>
      <point x="394" y="401"/>
      <point x="328" y="423"/>
      <point x="288" y="438" type="curve" smooth="yes"/>
      <point x="263" y="447"/>
      <point x="239" y="458"/>
      <point x="224" y="467" type="curve"/>
      <point x="124" y="422"/>
      <point x="76" y="364"/>
      <point x="76" y="295" type="curve" smooth="yes"/>
      <point x="76" y="232"/>
      <point x="110" y="192"/>
      <point x="178" y="168" type="curve" smooth="yes"/>
      <point x="226" y="151"/>
      <point x="335" y="115"/>
      <point x="382" y="88" type="curve"/>
      <point x="462" y="127"/>
      <point x="530" y="186"/>
    </contour>
  </outline>
</glyph>
<glyph name="dieresis" format="1">
  <advance width="435"/>
  <unicode hex="00A8"/>
  <outline>
    <contour>
      <point x="356" y="577" type="line"/>
      <point x="340" y="486" type="line"/>
      <point x="298" y="486" type="line"/>
      <point x="315" y="577" type="line"/>
    </contour>
    <contour>
      <point x="189" y="577" type="line"/>
      <point x="173" y="486" type="line"/>
      <point x="131" y="486" type="line"/>
      <point x="148" y="577" type="line"/>
    </contour>
  </outline>
</glyph>
<glyph name="ordfeminine" format="1">
  <advance width="407"/>
  <unicode hex="00AA"/>
  <outline>
    <contour>
      <point x="378" y="635" type="curve" smooth="yes"/>
      <point x="339" y="400" type="line"/>
      <point x="303" y="400" type="line"/>
      <point x="310" y="439" type="line"/>
      <point x="277" y="414"/>
      <point x="230" y="390"/>
      <point x="176" y="390" type="curve" smooth="yes"/>
      <point x="118" y="390"/>
      <point x="73" y="424"/>
      <point x="73" y="483" type="curve" smooth="yes"/>
      <point x="73" y="559"/>
      <point x="140" y="610"/>
      <point x="271" y="610" type="curve" smooth="yes"/>
      <point x="340" y="610" type="line"/>
      <point x="340" y="610"/>
      <point x="343" y="634"/>
      <point x="343" y="636" type="curve"/>
      <point x="351" y="686"/>
      <point x="321" y="711"/>
      <point x="261" y="711" type="curve" smooth="yes"/>
      <point x="220" y="711"/>
      <point x="183" y="700"/>
      <point x="157" y="685" type="curve"/>
      <point x="147" y="713" type="line"/>
      <point x="174" y="730"/>
      <point x="220" y="742"/>
      <point x="267" y="742" type="curve" smooth="yes"/>
      <point x="357" y="742"/>
      <point x="388" y="694"/>
    </contour>
    <contour>
      <point x="338" y="336" type="line"/>
      <point x="333" y="303" type="line"/>
      <point x="61" y="303" type="line"/>
      <point x="66" y="336" type="line"/>
    </contour>
    <contour>
      <point x="334" y="579" type="line"/>
      <point x="268" y="579" type="line" smooth="yes"/>
      <point x="169" y="579"/>
      <point x="110" y="549"/>
      <point x="110" y="487" type="curve" smooth="yes"/>
      <point x="110" y="451"/>
      <point x="132" y="422"/>
      <point x="181" y="422" type="curve" smooth="yes"/>
      <point x="234" y="422"/>
      <point x="282" y="450"/>
      <point x="316" y="474" type="curve"/>
    </contour>
  </outline>
</glyph>
<glyph name="guillemotleft" format="1">
  <advance width="310"/>
  <unicode hex="00AB"/>
  <outline>
    <contour>
      <point x="288" y="341" type="line"/>
      <point x="278" y="295" type="line"/>
      <point x="159" y="203" type="line"/>
      <point x="244" y="116" type="line"/>
      <point x="237" y="69" type="line"/>
      <point x="117" y="186" type="line"/>
      <point x="124" y="224" type="line"/>
    </contour>
    <contour>
      <point x="163" y="341" type="line"/>
      <point x="154" y="295" type="line"/>
      <point x="34" y="203" type="line"/>
      <point x="119" y="116" type="line"/>
      <point x="112" y="69" type="line"/>
      <point x="-7" y="186" type="line"/>
      <point x="-1" y="224" type="line"/>
    </contour>
  </outline>
</glyph>
<glyph name="degree" format="1">
  <advance width="374"/>
  <unicode hex="00B0"/>
  <outline>
    <contour>
      <point x="368" y="585" type="curve" smooth="yes"/>
      <point x="368" y="498"/>
      <point x="298" y="428"/>
      <point x="211" y="428" type="curve" smooth="yes"/>
      <point x="124" y="428"/>
      <point x="54" y="498"/>
      <point x="54" y="585" type="curve" smooth="yes"/>
      <point x="54" y="672"/>
      <point x="124" y="742"/>
      <point x="211" y="742" type="curve" smooth="yes"/>
      <point x="298" y="742"/>
      <point x="368" y="672"/>
    </contour>
    <contour>
      <point x="329" y="585" type="curve" smooth="yes"/>
      <point x="329" y="651"/>
      <point x="277" y="703"/>
      <point x="211" y="703" type="curve" smooth="yes"/>
      <point x="145" y="703"/>
      <point x="93" y="651"/>
      <point x="93" y="585" type="curve" smooth="yes"/>
      <point x="93" y="519"/>
      <point x="145" y="467"/>
      <point x="211" y="467" type="curve" smooth="yes"/>
      <point x="277" y="467"/>
      <point x="329" y="519"/>
    </contour>
  </outline>
</glyph>
<glyph name="twosuperior" format="1">
  <advance width="421"/>
  <unicode hex="00B2"/>
  <outline>
    <contour>
      <point x="177" y="392" type="line"/>
      <point x="341" y="392" type="line"/>
      <point x="334" y="352" type="line"/>
      <point x="79" y="352" type="line"/>
      <point x="287" y="551" type="line" smooth="yes"/>
      <point x="321" y="583"/>
      <point x="338" y="609"/>
      <point x="338" y="642" type="curve" smooth="yes"/>
      <point x="338" y="677"/>
      <point x="315" y="702"/>
      <point x="274" y="702" type="curve" smooth="yes"/>
      <point x="231" y="702"/>
      <point x="203" y="680"/>
      <point x="185" y="628" type="curve"/>
      <point x="143" y="628" type="line"/>
      <point x="166" y="701"/>
      <point x="211" y="741"/>
      <point x="277" y="741" type="curve" smooth="yes"/>
      <point x="337" y="741"/>
      <point x="380" y="701"/>
      <point x="380" y="643" type="curve" smooth="yes"/>
      <point x="380" y="601"/>
      <point x="361" y="570"/>
      <point x="314" y="525" type="curve" smooth="yes"/>
    </contour>
  </outline>
</glyph>
<glyph name="acute" format="1">
  <advance width="435"/>
  <unicode hex="00B4"/>
  <outline>
    <contour>
      <point x="330" y="620" type="line"/>
      <point x="228" y="486" type="line"/>
      <point x="184" y="486" type="line"/>
      <point x="283" y="620" type="line"/>
    </contour>
  </outline>
</glyph>
<glyph name="paragraph" format="1">
  <advance width="617"/>
  <unicode hex="00B6"/>
  <outline>
    <contour>
      <point x="609" y="730" type="line"/>
      <point x="448" y="-179" type="line"/>
      <point x="405" y="-179" type="line"/>
      <point x="559" y="692" type="line"/>
      <point x="475" y="692" type="line"/>
      <point x="321" y="-179" type="line"/>
      <point x="278" y="-179" type="line"/>
      <point x="354" y="247" type="line"/>
      <point x="307" y="247" type="line" smooth="yes"/>
      <point x="148" y="247"/>
      <point x="47" y="330"/>
      <point x="47" y="458" type="curve" smooth="yes"/>
      <point x="47" y="614"/>
      <point x="177" y="730"/>
      <point x="350" y="730" type="curve" smooth="yes"/>
    </contour>
    <contour>
      <point x="432" y="692" type="line"/>
      <point x="343" y="692" type="line" smooth="yes"/>
      <point x="201" y="692"/>
      <point x="92" y="597"/>
      <point x="92" y="468" type="curve" smooth="yes"/>
      <point x="92" y="349"/>
      <point x="171" y="285"/>
      <point x="322" y="285" type="curve" smooth="yes"/>
      <point x="360" y="285" type="line"/>
    </contour>
  </outline>
</glyph>
<glyph name="periodcentered" format="1">
  <advance width="165"/>
  <unicode hex="00B7"/>
  <outline>
    <contour>
      <point x="111" y="401" type="line"/>
      <point x="96" y="317" type="line"/>
      <point x="51" y="317" type="line"/>
      <point x="66" y="401" type="line"/>
    </contour>
  </outline>
</glyph>
<glyph name="cedilla" format="1">
  <advance width="437"/>
  <unicode hex="00B8"/>
  <outline>
    <contour>
      <point x="279" y="-99" type="curve" smooth="yes"/>
      <point x="279" y="-151"/>
      <point x="235" y="-179"/>
      <point x="177" y="-179" type="curve" smooth="yes"/>
      <point x="141" y="-179"/>
      <point x="112" y="-167"/>
      <point x="88" y="-146" type="curve"/>
      <point x="107" y="-127" type="line"/>
      <point x="125" y="-144"/>
      <point x="151" y="-152"/>
      <point x="179" y="-152" type="curve" smooth="yes"/>
      <point x="212" y="-152"/>
      <point x="243" y="-136"/>
      <point x="243" y="-103" type="curve" smooth="yes"/>
      <point x="243" y="-84"/>
      <point x="226" y="-73"/>
      <point x="194" y="-73" type="curve" smooth="yes"/>
      <point x="180" y="-73"/>
      <point x="166" y="-74"/>
      <point x="149" y="-78" type="curve"/>
      <point x="141" y="-65" type="line"/>
      <point x="198" y="4" type="line"/>
      <point x="234" y="4" type="line"/>
      <point x="187" y="-51" type="line"/>
      <point x="193" y="-50"/>
      <point x="201" y="-49"/>
      <point x="211" y="-49" type="curve" smooth="yes"/>
      <point x="246" y="-49"/>
      <point x="279" y="-65"/>
    </contour>
  </outline>
</glyph>
<glyph name="ordmasculine" format="1">
  <advance width="442"/>
  <unicode hex="00BA"/>
  <outline>
    <contour>
      <point x="428" y="592" type="curve" smooth="yes"/>
      <point x="428" y="478"/>
      <point x="338" y="389"/>
      <point x="230" y="389" type="curve" smooth="yes"/>
      <point x="129" y="389"/>
      <point x="78" y="462"/>
      <point x="78" y="541" type="curve" smooth="yes"/>
      <point x="78" y="646"/>
      <point x="160" y="743"/>
      <point x="276" y="743" type="curve" smooth="yes"/>
      <point x="376" y="743"/>
      <point x="428" y="669"/>
    </contour>
    <contour>
      <point x="375" y="336" type="line"/>
      <point x="370" y="303" type="line"/>
      <point x="60" y="303" type="line"/>
      <point x="66" y="336" type="line"/>
    </contour>
    <contour>
      <point x="391" y="589" type="curve" smooth="yes"/>
      <point x="391" y="652"/>
      <point x="351" y="710"/>
      <point x="272" y="710" type="curve" smooth="yes"/>
      <point x="181" y="710"/>
      <point x="114" y="634"/>
      <point x="114" y="544" type="curve" smooth="yes"/>
      <point x="114" y="481"/>
      <point x="155" y="422"/>
      <point x="233" y="422" type="curve" smooth="yes"/>
      <point x="324" y="422"/>
      <point x="391" y="499"/>
    </contour>
  </outline>
</glyph>
<glyph name="guillemotright" format="1">
  <advance width="310"/>
  <unicode hex="00BB"/>
  <outline>
    <contour>
      <point x="271" y="225" type="line"/>
      <point x="264" y="187" type="line"/>
      <point x="100" y="69" type="line"/>
      <point x="110" y="116" type="line"/>
      <point x="230" y="209" type="line"/>
      <point x="145" y="295" type="line"/>
      <point x="151" y="342" type="line"/>
    </contour>
    <contour>
      <point x="146" y="225" type="line"/>
      <point x="139" y="187" type="line"/>
      <point x="-25" y="69" type="line"/>
      <point x="-15" y="116" type="line"/>
      <point x="105" y="209" type="line"/>
      <point x="20" y="295" type="line"/>
      <point x="26" y="342" type="line"/>
    </contour>
  </outline>
</glyph>
<glyph name="onequarter" format="1">
  <advance width="742"/>
  <unicode hex="00BC"/>
  <outline>
    <contour>
      <point x="134" y="342" type="line"/>
      <point x="90" y="342" type="line"/>
      <point x="146" y="658" type="line"/>
      <point x="130" y="643"/>
      <point x="99" y="628"/>
      <point x="75" y="627" type="curve"/>
      <point x="83" y="665" type="line"/>
      <point x="120" y="673"/>
      <point x="148" y="698"/>
      <point x="164" y="730" type="curve"/>
      <point x="202" y="730" type="line"/>
    </contour>
    <contour>
      <point x="670" y="730" type="line"/>
      <point x="42" y="0" type="line"/>
      <point x="-7" y="0" type="line"/>
      <point x="621" y="730" type="line"/>
    </contour>
    <contour>
      <point x="558" y="98" type="line"/>
      <point x="541" y="0" type="line"/>
      <point x="499" y="0" type="line"/>
      <point x="516" y="98" type="line"/>
      <point x="349" y="98" type="line"/>
      <point x="354" y="127" type="line"/>
      <point x="581" y="385" type="line"/>
      <point x="609" y="385" type="line"/>
      <point x="565" y="138" type="line"/>
      <point x="624" y="138" type="line"/>
      <point x="617" y="98" type="line"/>
    </contour>
    <contour>
      <point x="551" y="295" type="line"/>
      <point x="412" y="138" type="line"/>
      <point x="523" y="138" type="line"/>
    </contour>
  </outline>
</glyph>
<glyph name="onehalf" format="1">
  <advance width="742"/>
  <unicode hex="00BD"/>
  <outline>
    <contour>
      <point x="134" y="342" type="line"/>
      <point x="90" y="342" type="line"/>
      <point x="146" y="658" type="line"/>
      <point x="130" y="643"/>
      <point x="99" y="628"/>
      <point x="75" y="627" type="curve"/>
      <point x="83" y="665" type="line"/>
      <point x="120" y="673"/>
      <point x="148" y="698"/>
      <point x="164" y="730" type="curve"/>
      <point x="202" y="730" type="line"/>
    </contour>
    <contour>
      <point x="670" y="730" type="line"/>
      <point x="42" y="0" type="line"/>
      <point x="-7" y="0" type="line"/>
      <point x="621" y="730" type="line"/>
    </contour>
    <contour>
      <point x="474" y="40" type="line"/>
      <point x="638" y="40" type="line"/>
      <point x="631" y="0" type="line"/>
      <point x="376" y="0" type="line"/>
      <point x="584" y="199" type="line" smooth="yes"/>
      <point x="618" y="231"/>
      <point x="635" y="257"/>
      <point x="635" y="290" type="curve" smooth="yes"/>
      <point x="635" y="325"/>
      <point x="612" y="350"/>
      <point x="571" y="350" type="curve" smooth="yes"/>
      <point x="528" y="350"/>
      <point x="500" y="328"/>
      <point x="482" y="276" type="curve"/>
      <point x="440" y="276" type="line"/>
      <point x="463" y="349"/>
      <point x="508" y="389"/>
      <point x="574" y="389" type="curve" smooth="yes"/>
      <point x="634" y="389"/>
      <point x="677" y="349"/>
      <point x="677" y="291" type="curve" smooth="yes"/>
      <point x="677" y="249"/>
      <point x="658" y="218"/>
      <point x="611" y="173" type="curve" smooth="yes"/>
    </contour>
  </outline>
</glyph>
<glyph name="threequarters" format="1">
  <advance width="742"/>
  <unicode hex="00BE"/>
  <outline>
    <contour>
      <point x="253" y="554" type="curve"/>
      <point x="299" y="545"/>
      <point x="318" y="510"/>
      <point x="318" y="473" type="curve" smooth="yes"/>
      <point x="318" y="401"/>
      <point x="260" y="344"/>
      <point x="180" y="344" type="curve" smooth="yes"/>
      <point x="118" y="344"/>
      <point x="71" y="372"/>
      <point x="43" y="422" type="curve"/>
      <point x="76" y="448" type="line"/>
      <point x="107" y="401"/>
      <point x="135" y="384"/>
      <point x="181" y="384" type="curve" smooth="yes"/>
      <point x="238" y="384"/>
      <point x="274" y="421"/>
      <point x="274" y="471" type="curve" smooth="yes"/>
      <point x="274" y="510"/>
      <point x="242" y="537"/>
      <point x="190" y="537" type="curve" smooth="yes"/>
      <point x="153" y="537" type="line"/>
      <point x="159" y="574" type="line"/>
      <point x="195" y="574" type="line" smooth="yes"/>
      <point x="255" y="574"/>
      <point x="291" y="605"/>
      <point x="291" y="647" type="curve" smooth="yes"/>
      <point x="291" y="680"/>
      <point x="265" y="699"/>
      <point x="227" y="699" type="curve" smooth="yes"/>
      <point x="192" y="699"/>
      <point x="165" y="684"/>
      <point x="137" y="655" type="curve"/>
      <point x="107" y="682" type="line"/>
      <point x="148" y="725"/>
      <point x="185" y="740"/>
      <point x="230" y="740" type="curve" smooth="yes"/>
      <point x="291" y="740"/>
      <point x="335" y="704"/>
      <point x="335" y="652" type="curve" smooth="yes"/>
      <point x="335" y="606"/>
      <point x="310" y="566"/>
    </contour>
    <contour>
      <point x="742" y="730" type="line"/>
      <point x="114" y="0" type="line"/>
      <point x="65" y="0" type="line"/>
      <point x="693" y="730" type="line"/>
    </contour>
    <contour>
      <point x="630" y="98" type="line"/>
      <point x="613" y="0" type="line"/>
      <point x="571" y="0" type="line"/>
      <point x="588" y="98" type="line"/>
      <point x="421" y="98" type="line"/>
      <point x="426" y="127" type="line"/>
      <point x="653" y="385" type="line"/>
      <point x="681" y="385" type="line"/>
      <point x="637" y="138" type="line"/>
      <point x="696" y="138" type="line"/>
      <point x="689" y="98" type="line"/>
    </contour>
    <contour>
      <point x="623" y="295" type="line"/>
      <point x="484" y="138" type="line"/>
      <point x="595" y="138" type="line"/>
    </contour>
  </outline>
</glyph>
<glyph name="questiondown" format="1">
  <advance width="437"/>
  <unicode hex="00BF"/>
  <outline>
    <contour>
      <point x="326" y="730" type="line"/>
      <point x="311" y="646" type="line"/>
      <point x="266" y="646" type="line"/>
      <point x="281" y="730" type="line"/>
    </contour>
    <contour>
      <point x="356" y="81" type="line"/>
      <point x="308" y="14"/>
      <point x="242" y="-12"/>
      <point x="177" y="-12" type="curve" smooth="yes"/>
      <point x="75" y="-12"/>
      <point x="9" y="55"/>
      <point x="9" y="140" type="curve" smooth="yes"/>
      <point x="9" y="217"/>
      <point x="51" y="273"/>
      <point x="137" y="364" type="curve" smooth="yes"/>
      <point x="203" y="434"/>
      <point x="238" y="487"/>
      <point x="251" y="559" type="curve" smooth="yes"/>
      <point x="258" y="599" type="line"/>
      <point x="303" y="599" type="line"/>
      <point x="296" y="559" type="line" smooth="yes"/>
      <point x="282" y="477"/>
      <point x="248" y="424"/>
      <point x="167" y="337" type="curve" smooth="yes"/>
      <point x="83" y="247"/>
      <point x="58" y="205"/>
      <point x="58" y="145" type="curve" smooth="yes"/>
      <point x="58" y="80"/>
      <point x="107" y="30"/>
      <point x="181" y="30" type="curve" smooth="yes"/>
      <point x="239" y="30"/>
      <point x="287" y="54"/>
      <point x="327" y="108" type="curve"/>
    </contour>
  </outline>
</glyph>
<glyph name="Adieresis" format="1">
  <advance width="626"/>
  <unicode hex="00C4"/>
  <outline>
    <contour>
      <point x="542" y="730" type="line"/>
      <point x="526" y="639" type="line"/>
      <point x="484" y="639" type="line"/>
      <point x="501" y="730" type="line"/>
    </contour>
    <contour>
      <point x="253" y="730" type="line"/>
      <point x="237" y="639" type="line"/>
      <point x="195" y="639" type="line"/>
      <point x="212" y="730" type="line"/>
    </contour>
    <contour>
      <point x="531" y="0" type="line"/>
      <point x="483" y="0" type="line"/>
      <point x="433" y="280" type="line"/>
      <point x="163" y="280" type="line"/>
      <point x="13" y="0" type="line"/>
      <point x="-35" y="0" type="line"/>
      <point x="367" y="742" type="line"/>
      <point x="392" y="742" type="line"/>
    </contour>
    <contour>
      <point x="426" y="320" type="line"/>
      <point x="366" y="659" type="line"/>
      <point x="184" y="320" type="line"/>
    </contour>
  </outline>
</glyph>
<glyph name="Aring" format="1">
  <advance width="626"/>
  <unicode hex="00C5"/>
  <outline>
    <contour>
      <point x="397" y="715" type="curve"/>
      <point x="531" y="0" type="line"/>
      <point x="483" y="0" type="line"/>
      <point x="433" y="280" type="line"/>
      <point x="163" y="280" type="line"/>
      <point x="13" y="0" type="line"/>
      <point x="-35" y="0" type="line"/>
      <point x="354" y="717" type="line"/>
      <point x="317" y="728"/>
      <point x="288" y="762"/>
      <point x="288" y="805" type="curve" smooth="yes"/>
      <point x="288" y="862"/>
      <point x="336" y="909"/>
      <point x="392" y="909" type="curve" smooth="yes"/>
      <point x="442" y="909"/>
      <point x="484" y="869"/>
      <point x="484" y="817" type="curve" smooth="yes"/>
      <point x="484" y="765"/>
      <point x="446" y="723"/>
    </contour>
    <contour>
      <point x="452" y="816" type="curve" smooth="yes"/>
      <point x="452" y="850"/>
      <point x="426" y="878"/>
      <point x="392" y="878" type="curve" smooth="yes"/>
      <point x="355" y="878"/>
      <point x="320" y="847"/>
      <point x="320" y="807" type="curve" smooth="yes"/>
      <point x="320" y="772"/>
      <point x="347" y="744"/>
      <point x="378" y="744" type="curve" smooth="yes"/>
      <point x="423" y="744"/>
      <point x="452" y="780"/>
    </contour>
    <contour>
      <point x="426" y="320" type="line"/>
      <point x="366" y="659" type="line"/>
      <point x="184" y="320" type="line"/>
    </contour>
  </outline>
</glyph>
<glyph name="AE" format="1">
  <advance width="864"/>
  <unicode hex="00C6"/>
  <outline>
    <contour>
      <point x="886" y="730" type="line"/>
      <point x="879" y="690" type="line"/>
      <point x="552" y="690" type="line"/>
      <point x="501" y="405" type="line"/>
      <point x="794" y="405" type="line"/>
      <point x="787" y="367" type="line"/>
      <point x="494" y="367" type="line"/>
      <point x="436" y="40" type="line"/>
      <point x="783" y="40" type="line"/>
      <point x="776" y="0" type="line"/>
      <point x="389" y="0" type="line"/>
      <point x="439" y="281" type="line"/>
      <point x="224" y="281" type="line"/>
      <point x="11" y="0" type="line"/>
      <point x="-37" y="0" type="line"/>
      <point x="514" y="730" type="line"/>
    </contour>
    <contour>
      <point x="509" y="667" type="line"/>
      <point x="251" y="320" type="line"/>
      <point x="446" y="320" type="line"/>
    </contour>
  </outline>
</glyph>
<glyph name="Ccedilla" format="1">
  <advance width="714"/>
  <unicode hex="00C7"/>
  <outline>
    <contour>
      <point x="324" y="-11" type="line"/>
      <point x="168" y="2"/>
      <point x="41" y="125"/>
      <point x="41" y="308" type="curve" smooth="yes"/>
      <point x="41" y="533"/>
      <point x="225" y="742"/>
      <point x="454" y="742" type="curve" smooth="yes"/>
      <point x="562" y="742"/>
      <point x="657" y="690"/>
      <point x="704" y="614" type="curve"/>
      <point x="666" y="588" type="line"/>
      <point x="617" y="658"/>
      <point x="543" y="701"/>
      <point x="445" y="701" type="curve" smooth="yes"/>
      <point x="248" y="701"/>
      <point x="90" y="511"/>
      <point x="90" y="312" type="curve" smooth="yes"/>
      <point x="90" y="145"/>
      <point x="197" y="30"/>
      <point x="360" y="30" type="curve" smooth="yes"/>
      <point x="456" y="30"/>
      <point x="527" y="67"/>
      <point x="601" y="131" type="curve"/>
      <point x="628" y="104" type="line"/>
      <point x="563" y="42"/>
      <point x="475" y="-10"/>
      <point x="358" y="-12" type="curve"/>
      <point x="325" y="-51" type="line"/>
      <point x="331" y="-50"/>
      <point x="339" y="-49"/>
      <point x="349" y="-49" type="curve" smooth="yes"/>
      <point x="384" y="-49"/>
      <point x="417" y="-65"/>
      <point x="417" y="-99" type="curve" smooth="yes"/>
      <point x="417" y="-151"/>
      <point x="373" y="-179"/>
      <point x="315" y="-179" type="curve" smooth="yes"/>
      <point x="279" y="-179"/>
      <point x="250" y="-167"/>
      <point x="226" y="-146" type="curve"/>
      <point x="245" y="-127" type="line"/>
      <point x="263" y="-144"/>
      <point x="289" y="-152"/>
      <point x="317" y="-152" type="curve" smooth="yes"/>
      <point x="350" y="-152"/>
      <point x="381" y="-136"/>
      <point x="381" y="-103" type="curve" smooth="yes"/>
      <point x="381" y="-84"/>
      <point x="364" y="-73"/>
      <point x="332" y="-73" type="curve" smooth="yes"/>
      <point x="318" y="-73"/>
      <point x="304" y="-74"/>
      <point x="287" y="-78" type="curve"/>
      <point x="279" y="-65" type="line"/>
    </contour>
  </outline>
</glyph>
<glyph name="Eth" format="1">
  <advance width="662"/>
  <unicode hex="00D0"/>
  <outline>
    <contour>
      <point x="85" y="353" type="line"/>
      <point x="25" y="353" type="line"/>
      <point x="32" y="395" type="line"/>
      <point x="92" y="395" type="line"/>
      <point x="152" y="730" type="line"/>
      <point x="287" y="730" type="line" smooth="yes"/>
      <point x="487" y="730"/>
      <point x="624" y="615"/>
      <point x="624" y="429" type="curve" smooth="yes"/>
      <point x="624" y="155"/>
      <point x="409" y="0"/>
      <point x="165" y="0" type="curve" smooth="yes"/>
      <point x="22" y="0" type="line"/>
    </contour>
    <contour>
      <point x="137" y="395" type="line"/>
      <point x="321" y="395" type="line"/>
      <point x="314" y="353" type="line"/>
      <point x="129" y="353" type="line"/>
      <point x="74" y="40" type="line"/>
      <point x="166" y="40" type="line" smooth="yes"/>
      <point x="394" y="40"/>
      <point x="578" y="186"/>
      <point x="578" y="422" type="curve" smooth="yes"/>
      <point x="578" y="587"/>
      <point x="464" y="690"/>
      <point x="284" y="690" type="curve" smooth="yes"/>
      <point x="189" y="690" type="line"/>
    </contour>
  </outline>
</glyph>
<glyph name="multiply" format="1">
  <advance width="486"/>
  <unicode hex="00D7"/>
  <outline>
    <contour>
      <point x="237" y="297" type="line"/>
      <point x="238" y="297"/>
      <point x="77" y="160"/>
      <point x="77" y="160" type="curve"/>
      <point x="51" y="191" type="line"/>
      <point x="212" y="328" type="line"/>
      <point x="97" y="467" type="line"/>
      <point x="129" y="495" type="line"/>
      <point x="244" y="356" type="line"/>
      <point x="410" y="496" type="line"/>
      <point x="436" y="465" type="line"/>
      <point x="270" y="325" type="line"/>
      <point x="382" y="188" type="line"/>
      <point x="350" y="160" type="line"/>
    </contour>
  </outline>
</glyph>
<glyph name="Oslash" format="1">
  <advance width="810"/>
  <unicode hex="00D8"/>
  <outline>
    <contour>
      <point x="767" y="429" type="curve" smooth="yes"/>
      <point x="767" y="189"/>
      <point x="587" y="-12"/>
      <point x="361" y="-12" type="curve" smooth="yes"/>
      <point x="268" y="-12"/>
      <point x="189" y="23"/>
      <point x="134" y="78" type="curve"/>
      <point x="41" y="-11" type="line"/>
      <point x="17" y="14" type="line"/>
      <point x="110" y="103" type="line"/>
      <point x="68" y="157"/>
      <point x="44" y="225"/>
      <point x="44" y="302" type="curve" smooth="yes"/>
      <point x="44" y="547"/>
      <point x="225" y="742"/>
      <point x="452" y="742" type="curve" smooth="yes"/>
      <point x="545" y="742"/>
      <point x="624" y="707"/>
      <point x="680" y="650" type="curve"/>
      <point x="776" y="742" type="line"/>
      <point x="800" y="717" type="line"/>
      <point x="702" y="624" type="line"/>
      <point x="743" y="570"/>
      <point x="767" y="502"/>
    </contour>
    <contour>
      <point x="647" y="618" type="line"/>
      <point x="600" y="670"/>
      <point x="529" y="701"/>
      <point x="445" y="701" type="curve" smooth="yes"/>
      <point x="232" y="701"/>
      <point x="88" y="508"/>
      <point x="88" y="309" type="curve" smooth="yes"/>
      <point x="88" y="243"/>
      <point x="108" y="183"/>
      <point x="143" y="135" type="curve"/>
    </contour>
    <contour>
      <point x="723" y="424" type="curve" smooth="yes"/>
      <point x="723" y="487"/>
      <point x="704" y="545"/>
      <point x="670" y="592" type="curve"/>
      <point x="166" y="109" type="line"/>
      <point x="215" y="59"/>
      <point x="284" y="29"/>
      <point x="366" y="29" type="curve" smooth="yes"/>
      <point x="574" y="29"/>
      <point x="723" y="219"/>
    </contour>
  </outline>
</glyph>
<glyph name="Thorn" format="1">
  <advance width="526"/>
  <unicode hex="00DE"/>
  <outline>
    <contour>
      <point x="493" y="408" type="curve" smooth="yes"/>
      <point x="493" y="276"/>
      <point x="390" y="171"/>
      <point x="221" y="171" type="curve" smooth="yes"/>
      <point x="90" y="171" type="line"/>
      <point x="60" y="0" type="line"/>
      <point x="16" y="0" type="line"/>
      <point x="144" y="730" type="line"/>
      <point x="188" y="730" type="line"/>
      <point x="163" y="586" type="line"/>
      <point x="266" y="586" type="line" smooth="yes"/>
      <point x="425" y="586"/>
      <point x="493" y="515"/>
    </contour>
    <contour>
      <point x="448" y="405" type="curve" smooth="yes"/>
      <point x="448" y="492"/>
      <point x="389" y="545"/>
      <point x="252" y="545" type="curve" smooth="yes"/>
      <point x="155" y="545" type="line"/>
      <point x="97" y="212" type="line"/>
      <point x="222" y="212" type="line" smooth="yes"/>
      <point x="370" y="212"/>
      <point x="448" y="297"/>
    </contour>
  </outline>
</glyph>
<glyph name="germandbls" format="1">
  <advance width="456"/>
  <unicode hex="00DF"/>
  <outline>
    <contour>
      <point x="415" y="617" type="curve" smooth="yes"/>
      <point x="415" y="505"/>
      <point x="329" y="428"/>
      <point x="263" y="421" type="curve"/>
      <point x="315" y="408"/>
      <point x="385" y="351"/>
      <point x="385" y="235" type="curve" smooth="yes"/>
      <point x="386" y="115"/>
      <point x="329" y="-12"/>
      <point x="194" y="-12" type="curve" smooth="yes"/>
      <point x="161" y="-12"/>
      <point x="138" y="-4"/>
      <point x="118" y="7" type="curve"/>
      <point x="131" y="44" type="line"/>
      <point x="148" y="34"/>
      <point x="170" y="26"/>
      <point x="198" y="26" type="curve" smooth="yes"/>
      <point x="292" y="26"/>
      <point x="342" y="124"/>
      <point x="342" y="225" type="curve" smooth="yes"/>
      <point x="342" y="326"/>
      <point x="289" y="407"/>
      <point x="198" y="407" type="curve" smooth="yes"/>
      <point x="192" y="407" type="line"/>
      <point x="197" y="439" type="line"/>
      <point x="210" y="439" type="line" smooth="yes"/>
      <point x="293" y="439"/>
      <point x="373" y="514"/>
      <point x="373" y="609" type="curve" smooth="yes"/>
      <point x="373" y="669"/>
      <point x="337" y="706"/>
      <point x="279" y="706" type="curve" smooth="yes"/>
      <point x="206" y="706"/>
      <point x="158" y="647"/>
      <point x="144" y="568" type="curve" smooth="yes"/>
      <point x="12" y="-179" type="line"/>
      <point x="-29" y="-179" type="line"/>
      <point x="103" y="566" type="line" smooth="yes"/>
      <point x="121" y="669"/>
      <point x="181" y="742"/>
      <point x="284" y="742" type="curve" smooth="yes"/>
      <point x="362" y="742"/>
      <point x="415" y="690"/>
    </contour>
  </outline>
</glyph>
<glyph name="ae" format="1">
  <advance width="777"/>
  <unicode hex="00E6"/>
  <outline>
    <contour>
      <point x="706" y="241" type="curve" smooth="yes"/>
      <point x="706" y="229"/>
      <point x="708" y="213"/>
      <point x="704" y="207" type="curve"/>
      <point x="342" y="207" type="line"/>
      <point x="341" y="197"/>
      <point x="339" y="183"/>
      <point x="339" y="168" type="curve" smooth="yes"/>
      <point x="339" y="85"/>
      <point x="386" y="25"/>
      <point x="485" y="25" type="curve" smooth="yes"/>
      <point x="541" y="25"/>
      <point x="587" y="43"/>
      <point x="628" y="76" type="curve"/>
      <point x="652" y="50" type="line"/>
      <point x="617" y="18"/>
      <point x="562" y="-12"/>
      <point x="484" y="-12" type="curve" smooth="yes"/>
      <point x="404" y="-12"/>
      <point x="345" y="21"/>
      <point x="319" y="79" type="curve"/>
      <point x="267" y="32"/>
      <point x="200" y="-12"/>
      <point x="115" y="-12" type="curve" smooth="yes"/>
      <point x="46" y="-12"/>
      <point x="-7" y="29"/>
      <point x="-7" y="99" type="curve" smooth="yes"/>
      <point x="-7" y="191"/>
      <point x="73" y="251"/>
      <point x="229" y="251" type="curve" smooth="yes"/>
      <point x="311" y="251" type="line"/>
      <point x="312" y="258"/>
      <point x="314" y="270"/>
      <point x="315" y="275" type="curve" smooth="yes"/>
      <point x="327" y="346"/>
      <point x="292" y="376"/>
      <point x="217" y="376" type="curve" smooth="yes"/>
      <point x="168" y="376"/>
      <point x="129" y="366"/>
      <point x="91" y="347" type="curve"/>
      <point x="80" y="379" type="line"/>
      <point x="121" y="400"/>
      <point x="169" y="412"/>
      <point x="224" y="412" type="curve" smooth="yes"/>
      <point x="309" y="412"/>
      <point x="350" y="370"/>
      <point x="352" y="322" type="curve"/>
      <point x="392" y="376"/>
      <point x="457" y="411"/>
      <point x="533" y="411" type="curve" smooth="yes"/>
      <point x="647" y="411"/>
      <point x="706" y="327"/>
    </contour>
    <contour>
      <point x="665" y="240" type="line"/>
      <point x="665" y="319"/>
      <point x="619" y="375"/>
      <point x="530" y="375" type="curve" smooth="yes"/>
      <point x="446" y="375"/>
      <point x="375" y="320"/>
      <point x="350" y="240" type="curve"/>
    </contour>
    <contour>
      <point x="304" y="216" type="curve"/>
      <point x="226" y="216" type="line" smooth="yes"/>
      <point x="108" y="216"/>
      <point x="35" y="179"/>
      <point x="35" y="104" type="curve" smooth="yes"/>
      <point x="35" y="59"/>
      <point x="64" y="24"/>
      <point x="122" y="24" type="curve" smooth="yes"/>
      <point x="180" y="24"/>
      <point x="246" y="58"/>
      <point x="304" y="109" type="curve"/>
      <point x="294" y="134"/>
      <point x="298" y="190"/>
    </contour>
  </outline>
</glyph>
<glyph name="ccedilla" format="1">
  <advance width="428"/>
  <unicode hex="00E7"/>
  <outline>
    <contour>
      <point x="150" y="-11" type="line"/>
      <point x="69" y="-1"/>
      <point x="0" y="63"/>
      <point x="0" y="174" type="curve" smooth="yes"/>
      <point x="0" y="291"/>
      <point x="98" y="413"/>
      <point x="226" y="413" type="curve" smooth="yes"/>
      <point x="320" y="413"/>
      <point x="360" y="369"/>
      <point x="390" y="327" type="curve"/>
      <point x="353" y="303" type="line"/>
      <point x="324" y="346"/>
      <point x="288" y="375"/>
      <point x="228" y="375" type="curve" smooth="yes"/>
      <point x="117" y="375"/>
      <point x="43" y="271"/>
      <point x="43" y="176" type="curve" smooth="yes"/>
      <point x="43" y="93"/>
      <point x="96" y="26"/>
      <point x="174" y="26" type="curve" smooth="yes"/>
      <point x="237" y="26"/>
      <point x="281" y="51"/>
      <point x="325" y="100" type="curve"/>
      <point x="353" y="77" type="line"/>
      <point x="310" y="27"/>
      <point x="255" y="-8"/>
      <point x="185" y="-12" type="curve"/>
      <point x="151" y="-51" type="line"/>
      <point x="157" y="-50"/>
      <point x="165" y="-49"/>
      <point x="175" y="-49" type="curve" smooth="yes"/>
      <point x="210" y="-49"/>
      <point x="243" y="-65"/>
      <point x="243" y="-99" type="curve" smooth="yes"/>
      <point x="243" y="-151"/>
      <point x="199" y="-179"/>
      <point x="141" y="-179" type="curve" smooth="yes"/>
      <point x="105" y="-179"/>
      <point x="76" y="-167"/>
      <point x="52" y="-146" type="curve"/>
      <point x="71" y="-127" type="line"/>
      <point x="89" y="-144"/>
      <point x="115" y="-152"/>
      <point x="143" y="-152" type="curve" smooth="yes"/>
      <point x="176" y="-152"/>
      <point x="207" y="-136"/>
      <point x="207" y="-103" type="curve" smooth="yes"/>
      <point x="207" y="-84"/>
      <point x="190" y="-73"/>
      <point x="158" y="-73" type="curve" smooth="yes"/>
      <point x="144" y="-73"/>
      <point x="130" y="-74"/>
      <point x="113" y="-78" type="curve"/>
      <point x="105" y="-65" type="line"/>
    </contour>
  </outline>
</glyph>
<glyph name="eth" format="1">
  <advance width="474"/>
  <unicode hex="00F0"/>
  <outline>
    <contour>
      <point x="427" y="258" type="curve" smooth="yes"/>
      <point x="427" y="79"/>
      <point x="313" y="-12"/>
      <point x="193" y="-12" type="curve" smooth="yes"/>
      <point x="75" y="-12"/>
      <point x="10" y="76"/>
      <point x="10" y="176" type="curve" smooth="yes"/>
      <point x="10" y="300"/>
      <point x="103" y="414"/>
      <point x="241" y="414" type="curve" smooth="yes"/>
      <point x="311" y="414"/>
      <point x="361" y="381"/>
      <point x="376" y="343" type="curve"/>
      <point x="373" y="422"/>
      <point x="341" y="510"/>
      <point x="297" y="579" type="curve"/>
      <point x="170" y="528" type="line"/>
      <point x="156" y="565" type="line"/>
      <point x="276" y="613" type="line"/>
      <point x="244" y="655"/>
      <point x="208" y="692"/>
      <point x="172" y="723" type="curve"/>
      <point x="195" y="749" type="line"/>
      <point x="239" y="716"/>
      <point x="280" y="676"/>
      <point x="314" y="628" type="curve"/>
      <point x="396" y="661" type="line"/>
      <point x="410" y="624" type="line"/>
      <point x="336" y="594" type="line"/>
      <point x="408" y="483"/>
      <point x="427" y="360"/>
    </contour>
    <contour>
      <point x="378" y="230" type="curve" smooth="yes"/>
      <point x="378" y="340"/>
      <point x="314" y="373"/>
      <point x="244" y="373" type="curve" smooth="yes"/>
      <point x="136" y="373"/>
      <point x="55" y="286"/>
      <point x="55" y="180" type="curve" smooth="yes"/>
      <point x="55" y="97"/>
      <point x="105" y="27"/>
      <point x="198" y="27" type="curve" smooth="yes"/>
      <point x="304" y="27"/>
      <point x="378" y="121"/>
    </contour>
  </outline>
</glyph>
<glyph name="oslash" format="1">
  <advance width="493"/>
  <unicode hex="00F8"/>
  <outline>
    <contour>
      <point x="453" y="395" type="line"/>
      <point x="392" y="341" type="line"/>
      <point x="415" y="310"/>
      <point x="427" y="270"/>
      <point x="427" y="231" type="curve" smooth="yes"/>
      <point x="427" y="93"/>
      <point x="322" y="-12"/>
      <point x="191" y="-12" type="curve" smooth="yes"/>
      <point x="134" y="-12"/>
      <point x="90" y="7"/>
      <point x="59" y="38" type="curve"/>
      <point x="0" y="-15" type="line"/>
      <point x="-21" y="7" type="line"/>
      <point x="39" y="61" type="line"/>
      <point x="17" y="92"/>
      <point x="6" y="129"/>
      <point x="6" y="169" type="curve" smooth="yes"/>
      <point x="6" y="295"/>
      <point x="104" y="411"/>
      <point x="243" y="411" type="curve" smooth="yes"/>
      <point x="299" y="411"/>
      <point x="342" y="392"/>
      <point x="372" y="363" type="curve"/>
      <point x="433" y="417" type="line"/>
    </contour>
    <contour>
      <point x="343" y="335" type="line"/>
      <point x="318" y="358"/>
      <point x="284" y="374"/>
      <point x="239" y="374" type="curve" smooth="yes"/>
      <point x="130" y="374"/>
      <point x="48" y="281"/>
      <point x="48" y="173" type="curve" smooth="yes"/>
      <point x="48" y="144"/>
      <point x="56" y="116"/>
      <point x="72" y="92" type="curve"/>
    </contour>
    <contour>
      <point x="385" y="227" type="curve" smooth="yes"/>
      <point x="385" y="257"/>
      <point x="377" y="287"/>
      <point x="360" y="311" type="curve"/>
      <point x="89" y="67" type="line"/>
      <point x="113" y="42"/>
      <point x="148" y="26"/>
      <point x="194" y="26" type="curve" smooth="yes"/>
      <point x="302" y="26"/>
      <point x="385" y="118"/>
    </contour>
  </outline>
</glyph>
<glyph name="thorn" format="1">
  <advance width="487"/>
  <unicode hex="00FE"/>
  <outline>
    <contour>
      <point x="428" y="240" type="curve" smooth="yes"/>
      <point x="428" y="89"/>
      <point x="320" y="-14"/>
      <point x="200" y="-14" type="curve" smooth="yes"/>
      <point x="130" y="-14"/>
      <point x="82" y="20"/>
      <point x="52" y="63" type="curve"/>
      <point x="8" y="-179" type="line"/>
      <point x="-34" y="-179" type="line"/>
      <point x="128" y="730" type="line"/>
      <point x="171" y="730" type="line"/>
      <point x="98" y="316" type="line"/>
      <point x="127" y="372"/>
      <point x="195" y="414"/>
      <point x="263" y="414" type="curve" smooth="yes"/>
      <point x="364" y="414"/>
      <point x="428" y="336"/>
    </contour>
    <contour>
      <point x="385" y="233" type="curve" smooth="yes"/>
      <point x="385" y="327"/>
      <point x="330" y="374"/>
      <point x="254" y="374" type="curve" smooth="yes"/>
      <point x="174" y="374"/>
      <point x="95" y="308"/>
      <point x="76" y="198" type="curve" smooth="yes"/>
      <point x="61" y="113" type="line"/>
      <point x="84" y="62"/>
      <point x="131" y="26"/>
      <point x="205" y="26" type="curve" smooth="yes"/>
      <point x="309" y="26"/>
      <point x="385" y="121"/>
    </contour>
  </outline>
</glyph>
<glyph name="dotlessi" format="1">
  <advance width="171"/>
  <unicode hex="0131"/>
  <outline>
    <contour>
      <point x="112" y="401" type="line"/>
      <point x="41" y="0" type="line"/>
      <point x="0" y="0" type="line"/>
      <point x="71" y="401" type="line"/>
    </contour>
  </outline>
</glyph>
<glyph name="Lslash" format="1">
  <advance width="484"/>
  <unicode hex="0141"/>
  <outline>
    <contour>
      <point x="77" y="349" type="line"/>
      <point x="144" y="730" type="line"/>
      <point x="189" y="730" type="line"/>
      <point x="125" y="366" type="line"/>
      <point x="283" y="422" type="line"/>
      <point x="296" y="384" type="line"/>
      <point x="117" y="320" type="line"/>
      <point x="67" y="40" type="line"/>
      <point x="400" y="40" type="line"/>
      <point x="393" y="0" type="line"/>
      <point x="15" y="0" type="line"/>
      <point x="69" y="303" type="line"/>
      <point x="4" y="280" type="line"/>
      <point x="-10" y="318" type="line"/>
    </contour>
  </outline>
</glyph>
<glyph name="lslash" format="1">
  <advance width="203"/>
  <unicode hex="0142"/>
  <outline>
    <contour>
      <point x="106" y="367" type="line"/>
      <point x="173" y="391" type="line"/>
      <point x="186" y="353" type="line"/>
      <point x="98" y="321" type="line"/>
      <point x="41" y="0" type="line"/>
      <point x="0" y="0" type="line"/>
      <point x="54" y="305" type="line"/>
      <point x="-2" y="285" type="line"/>
      <point x="-15" y="324" type="line"/>
      <point x="62" y="351" type="line"/>
      <point x="129" y="730" type="line"/>
      <point x="170" y="730" type="line"/>
    </contour>
  </outline>
</glyph>
<glyph name="OE" format="1">
  <advance width="1133"/>
  <unicode hex="0152"/>
  <outline>
    <contour>
      <point x="1154" y="730" type="line"/>
      <point x="1148" y="690" type="line"/>
      <point x="821" y="690" type="line"/>
      <point x="770" y="405" type="line"/>
      <point x="1062" y="405" type="line"/>
      <point x="1055" y="367" type="line"/>
      <point x="763" y="367" type="line"/>
      <point x="705" y="40" type="line"/>
      <point x="1051" y="40" type="line"/>
      <point x="1044" y="0" type="line"/>
      <point x="657" y="0" type="line"/>
      <point x="690" y="185" type="line"/>
      <point x="623" y="69"/>
      <point x="502" y="-12"/>
      <point x="361" y="-12" type="curve" smooth="yes"/>
      <point x="173" y="-12"/>
      <point x="44" y="126"/>
      <point x="44" y="302" type="curve" smooth="yes"/>
      <point x="44" y="547"/>
      <point x="225" y="742"/>
      <point x="452" y="742" type="curve" smooth="yes"/>
      <point x="604" y="742"/>
      <point x="723" y="640"/>
      <point x="748" y="512" type="curve"/>
      <point x="786" y="730" type="line"/>
    </contour>
    <contour>
      <point x="723" y="424" type="curve" smooth="yes"/>
      <point x="723" y="577"/>
      <point x="613" y="701"/>
      <point x="445" y="701" type="curve" smooth="yes"/>
      <point x="232" y="701"/>
      <point x="88" y="508"/>
      <point x="88" y="309" type="curve" smooth="yes"/>
      <point x="88" y="152"/>
      <point x="195" y="29"/>
      <point x="366" y="29" type="curve" smooth="yes"/>
      <point x="574" y="29"/>
      <point x="723" y="219"/>
    </contour>
  </outline>
</glyph>
<glyph name="oe" format="1">
  <advance width="860"/>
  <unicode hex="0153"/>
  <outline>
    <contour>
      <point x="789" y="241" type="curve" smooth="yes"/>
      <point x="789" y="229"/>
      <point x="788" y="215"/>
      <point x="787" y="207" type="curve"/>
      <point x="425" y="207" type="line"/>
      <point x="424" y="197"/>
      <point x="423" y="186"/>
      <point x="423" y="174" type="curve" smooth="yes"/>
      <point x="423" y="94"/>
      <point x="475" y="25"/>
      <point x="571" y="25" type="curve" smooth="yes"/>
      <point x="625" y="25"/>
      <point x="670" y="43"/>
      <point x="711" y="76" type="curve"/>
      <point x="735" y="50" type="line"/>
      <point x="700" y="18"/>
      <point x="645" y="-12"/>
      <point x="569" y="-12" type="curve" smooth="yes"/>
      <point x="474" y="-12"/>
      <point x="413" y="42"/>
      <point x="394" y="110" type="curve"/>
      <point x="357" y="38"/>
      <point x="278" y="-12"/>
      <point x="191" y="-12" type="curve" smooth="yes"/>
      <point x="71" y="-12"/>
      <point x="6" y="74"/>
      <point x="6" y="169" type="curve" smooth="yes"/>
      <point x="6" y="295"/>
      <point x="104" y="411"/>
      <point x="243" y="411" type="curve" smooth="yes"/>
      <point x="337" y="411"/>
      <point x="397" y="356"/>
      <point x="415" y="289" type="curve"/>
      <point x="449" y="360"/>
      <point x="525" y="411"/>
      <point x="616" y="411" type="curve" smooth="yes"/>
      <point x="730" y="411"/>
      <point x="789" y="327"/>
    </contour>
    <contour>
      <point x="748" y="240" type="line"/>
      <point x="748" y="319"/>
      <point x="702" y="375"/>
      <point x="613" y="375" type="curve" smooth="yes"/>
      <point x="529" y="375"/>
      <point x="458" y="320"/>
      <point x="433" y="240" type="curve"/>
    </contour>
    <contour>
      <point x="385" y="227" type="curve" smooth="yes"/>
      <point x="385" y="304"/>
      <point x="335" y="374"/>
      <point x="239" y="374" type="curve" smooth="yes"/>
      <point x="130" y="374"/>
      <point x="48" y="281"/>
      <point x="48" y="173" type="curve" smooth="yes"/>
      <point x="48" y="96"/>
      <point x="98" y="26"/>
      <point x="194" y="26" type="curve" smooth="yes"/>
      <point x="302" y="26"/>
      <point x="385" y="118"/>
    </contour>
  </outline>
</glyph>
<glyph name="florin" format="1">
  <advance width="253"/>
  <unicode hex="0192"/>
  <outline>
    <contour>
      <point x="287" y="728" type="curve"/>
      <point x="280" y="692" type="line"/>
      <point x="277" y="693"/>
      <point x="256" y="694"/>
      <point x="251" y="694" type="curve" smooth="yes"/>
      <point x="197" y="694"/>
      <point x="183" y="660"/>
      <point x="175" y="614" type="curve" smooth="yes"/>
      <point x="139" y="405" type="line"/>
      <point x="220" y="405" type="line"/>
      <point x="214" y="367" type="line"/>
      <point x="132" y="367" type="line"/>
      <point x="133" y="367"/>
      <point x="56" y="-74"/>
      <point x="56" y="-74" type="curve" smooth="yes"/>
      <point x="42" y="-156"/>
      <point x="3" y="-179"/>
      <point x="-54" y="-179" type="curve" smooth="yes"/>
      <point x="-63" y="-179"/>
      <point x="-76" y="-178"/>
      <point x="-81" y="-176" type="curve"/>
      <point x="-74" y="-140" type="line"/>
      <point x="-71" y="-141"/>
      <point x="-64" y="-142"/>
      <point x="-59" y="-142" type="curve" smooth="yes"/>
      <point x="-5" y="-142"/>
      <point x="8" y="-117"/>
      <point x="17" y="-63" type="curve" smooth="yes"/>
      <point x="91" y="367" type="line"/>
      <point x="33" y="367" type="line"/>
      <point x="39" y="405" type="line"/>
      <point x="39" y="405"/>
      <point x="98" y="405"/>
      <point x="97" y="405" type="curve"/>
      <point x="136" y="625" type="line" smooth="yes"/>
      <point x="149" y="698"/>
      <point x="189" y="731"/>
      <point x="245" y="731" type="curve" smooth="yes"/>
      <point x="254" y="731"/>
      <point x="282" y="730"/>
    </contour>
  </outline>
</glyph>
<glyph name="circumflex" format="1">
  <advance width="437"/>
  <unicode hex="02C6"/>
  <outline>
    <contour>
      <point x="353" y="486" type="line"/>
      <point x="311" y="486" type="line"/>
      <point x="250" y="584" type="line"/>
      <point x="154" y="486" type="line"/>
      <point x="109" y="486" type="line"/>
      <point x="234" y="617" type="line"/>
      <point x="273" y="617" type="line"/>
    </contour>
  </outline>
</glyph>
<glyph name="caron" format="1">
  <advance width="437"/>
  <unicode hex="02C7"/>
  <outline>
    <contour>
      <point x="368" y="617" type="line"/>
      <point x="241" y="486" type="line"/>
      <point x="203" y="486" type="line"/>
      <point x="123" y="617" type="line"/>
      <point x="166" y="617" type="line"/>
      <point x="228" y="524" type="line"/>
      <point x="326" y="617" type="line"/>
    </contour>
  </outline>
</glyph>
<glyph name="breve" format="1">
  <advance width="437"/>
  <unicode hex="02D8"/>
  <outline>
    <contour>
      <point x="378" y="615" type="line"/>
      <point x="360" y="531"/>
      <point x="293" y="482"/>
      <point x="222" y="482" type="curve" smooth="yes"/>
      <point x="151" y="482"/>
      <point x="101" y="531"/>
      <point x="114" y="615" type="curve"/>
      <point x="152" y="615" type="line"/>
      <point x="144" y="560"/>
      <point x="176" y="518"/>
      <point x="227" y="518" type="curve" smooth="yes"/>
      <point x="280" y="518"/>
      <point x="328" y="561"/>
      <point x="340" y="615" type="curve"/>
    </contour>
  </outline>
</glyph>
<glyph name="dotaccent" format="1">
  <advance width="437"/>
  <unicode hex="02D9"/>
  <outline>
    <contour>
      <point x="191" y="583" type="line"/>
      <point x="177" y="507" type="line"/>
      <point x="134" y="507" type="line"/>
      <point x="148" y="583" type="line"/>
    </contour>
  </outline>
</glyph>
<glyph name="ring" format="1">
  <advance width="437"/>
  <unicode hex="02DA"/>
  <outline>
    <contour>
      <point x="333" y="584" type="curve" smooth="yes"/>
      <point x="333" y="526"/>
      <point x="285" y="480"/>
      <point x="228" y="480" type="curve" smooth="yes"/>
      <point x="178" y="480"/>
      <point x="137" y="520"/>
      <point x="137" y="572" type="curve" smooth="yes"/>
      <point x="137" y="629"/>
      <point x="185" y="676"/>
      <point x="241" y="676" type="curve" smooth="yes"/>
      <point x="291" y="676"/>
      <point x="333" y="636"/>
    </contour>
    <contour>
      <point x="301" y="583" type="curve" smooth="yes"/>
      <point x="301" y="617"/>
      <point x="275" y="645"/>
      <point x="241" y="645" type="curve" smooth="yes"/>
      <point x="204" y="645"/>
      <point x="169" y="614"/>
      <point x="169" y="574" type="curve" smooth="yes"/>
      <point x="169" y="539"/>
      <point x="196" y="511"/>
      <point x="227" y="511" type="curve" smooth="yes"/>
      <point x="272" y="511"/>
      <point x="301" y="547"/>
    </contour>
  </outline>
</glyph>
<glyph name="ogonek" format="1">
  <advance width="437"/>
  <unicode hex="02DB"/>
  <outline>
    <contour>
      <point x="297" y="-150" type="line"/>
      <point x="268" y="-170"/>
      <point x="234" y="-180"/>
      <point x="203" y="-180" type="curve" smooth="yes"/>
      <point x="152" y="-180"/>
      <point x="101" y="-155"/>
      <point x="101" y="-104" type="curve" smooth="yes"/>
      <point x="101" y="-67"/>
      <point x="133" y="-22"/>
      <point x="207" y="10" type="curve"/>
      <point x="251" y="10" type="line"/>
      <point x="179" y="-26"/>
      <point x="140" y="-64"/>
      <point x="140" y="-102" type="curve" smooth="yes"/>
      <point x="140" y="-135"/>
      <point x="168" y="-151"/>
      <point x="205" y="-151" type="curve" smooth="yes"/>
      <point x="231" y="-151"/>
      <point x="256" y="-144"/>
      <point x="282" y="-128" type="curve"/>
    </contour>
  </outline>
</glyph>
<glyph name="tilde" format="1">
  <advance width="437"/>
  <unicode hex="02DC"/>
  <outline>
    <contour>
      <point x="383" y="583" type="line"/>
      <point x="372" y="517"/>
      <point x="342" y="482"/>
      <point x="298" y="482" type="curve" smooth="yes"/>
      <point x="270" y="482"/>
      <point x="249" y="504"/>
      <point x="230" y="522" type="curve" smooth="yes"/>
      <point x="214" y="537"/>
      <point x="199" y="550"/>
      <point x="178" y="550" type="curve" smooth="yes"/>
      <point x="155" y="550"/>
      <point x="140" y="522"/>
      <point x="134" y="486" type="curve"/>
      <point x="97" y="486" type="line"/>
      <point x="107" y="543"/>
      <point x="136" y="586"/>
      <point x="182" y="586" type="curve" smooth="yes"/>
      <point x="209" y="586"/>
      <point x="232" y="569"/>
      <point x="250" y="552" type="curve" smooth="yes"/>
      <point x="268" y="536"/>
      <point x="284" y="518"/>
      <point x="302" y="518" type="curve" smooth="yes"/>
      <point x="324" y="518"/>
      <point x="339" y="541"/>
      <point x="346" y="583" type="curve"/>
    </contour>
  </outline>
</glyph>
<glyph name="hungarumlaut" format="1">
  <advance width="437"/>
  <unicode hex="02DD"/>
  <outline>
    <contour>
      <point x="365" y="621" type="line"/>
      <point x="277" y="486" type="line"/>
      <point x="237" y="486" type="line"/>
      <point x="319" y="621" type="line"/>
    </contour>
    <contour>
      <point x="229" y="621" type="line"/>
      <point x="140" y="486" type="line"/>
      <point x="100" y="486" type="line"/>
      <point x="182" y="621" type="line"/>
    </contour>
  </outline>
</glyph>
<glyph name="endash" format="1">
  <advance width="410"/>
  <unicode hex="2013"/>
  <outline>
    <contour>
      <point x="328" y="246" type="line"/>
      <point x="321" y="206" type="line"/>
      <point x="31" y="206" type="line"/>
      <point x="38" y="246" type="line"/>
    </contour>
  </outline>
</glyph>
<glyph name="emdash" format="1">
  <advance width="570"/>
  <unicode hex="2014"/>
  <outline>
    <contour>
      <point x="488" y="246" type="line"/>
      <point x="481" y="206" type="line"/>
      <point x="31" y="206" type="line"/>
      <point x="38" y="246" type="line"/>
    </contour>
  </outline>
</glyph>
<glyph name="quoteleft" format="1">
  <advance width="165"/>
  <unicode hex="2018"/>
  <unicode hex="02BB"/>
  <outline>
    <contour>
      <point x="193" y="730" type="line"/>
      <point x="163" y="696"/>
      <point x="157" y="663"/>
      <point x="150" y="624" type="curve" smooth="yes"/>
      <point x="138" y="553" type="line"/>
      <point x="93" y="553" type="line"/>
      <point x="105" y="622" type="line" smooth="yes"/>
      <point x="111" y="658"/>
      <point x="135" y="702"/>
      <point x="165" y="730" type="curve"/>
    </contour>
  </outline>
</glyph>
<glyph name="quoteright" format="1">
  <advance width="165"/>
  <unicode hex="2019"/>
  <unicode hex="02BC"/>
  <outline>
    <contour>
      <point x="169" y="730" type="line"/>
      <point x="157" y="661" type="line" smooth="yes"/>
      <point x="151" y="625"/>
      <point x="126" y="581"/>
      <point x="97" y="553" type="curve"/>
      <point x="69" y="553" type="line"/>
      <point x="98" y="587"/>
      <point x="104" y="620"/>
      <point x="111" y="659" type="curve" smooth="yes"/>
      <point x="124" y="730" type="line"/>
    </contour>
  </outline>
</glyph>
<glyph name="quotesinglbase" format="1">
  <advance width="165"/>
  <unicode hex="201A"/>
  <outline>
    <contour>
      <point x="55" y="84" type="line"/>
      <point x="43" y="15" type="line" smooth="yes"/>
      <point x="37" y="-21"/>
      <point x="13" y="-65"/>
      <point x="-17" y="-93" type="curve"/>
      <point x="-45" y="-93" type="line"/>
      <point x="-15" y="-59"/>
      <point x="-10" y="-26"/>
      <point x="-3" y="13" type="curve" smooth="yes"/>
      <point x="10" y="84" type="line"/>
    </contour>
  </outline>
</glyph>
<glyph name="quotedblleft" format="1">
  <advance width="280"/>
  <unicode hex="201C"/>
  <outline>
    <contour>
      <point x="308" y="730" type="line"/>
      <point x="278" y="696"/>
      <point x="272" y="663"/>
      <point x="265" y="624" type="curve" smooth="yes"/>
      <point x="253" y="553" type="line"/>
      <point x="208" y="553" type="line"/>
      <point x="220" y="622" type="line" smooth="yes"/>
      <point x="226" y="658"/>
      <point x="250" y="702"/>
      <point x="280" y="730" type="curve"/>
    </contour>
    <contour>
      <point x="193" y="730" type="line"/>
      <point x="163" y="696"/>
      <point x="157" y="663"/>
      <point x="150" y="624" type="curve" smooth="yes"/>
      <point x="138" y="553" type="line"/>
      <point x="93" y="553" type="line"/>
      <point x="105" y="622" type="line" smooth="yes"/>
      <point x="111" y="658"/>
      <point x="135" y="702"/>
      <point x="165" y="730" type="curve"/>
    </contour>
  </outline>
</glyph>
<glyph name="quotedblright" format="1">
  <advance width="280"/>
  <unicode hex="201D"/>
  <outline>
    <contour>
      <point x="284" y="730" type="line"/>
      <point x="272" y="661" type="line" smooth="yes"/>
      <point x="266" y="625"/>
      <point x="241" y="581"/>
      <point x="212" y="553" type="curve"/>
      <point x="184" y="553" type="line"/>
      <point x="213" y="587"/>
      <point x="219" y="620"/>
      <point x="226" y="659" type="curve" smooth="yes"/>
      <point x="239" y="730" type="line"/>
    </contour>
    <contour>
      <point x="169" y="730" type="line"/>
      <point x="157" y="661" type="line" smooth="yes"/>
      <point x="151" y="625"/>
      <point x="126" y="581"/>
      <point x="97" y="553" type="curve"/>
      <point x="69" y="553" type="line"/>
      <point x="98" y="587"/>
      <point x="104" y="620"/>
      <point x="111" y="659" type="curve" smooth="yes"/>
      <point x="124" y="730" type="line"/>
    </contour>
  </outline>
</glyph>
<glyph name="quotedblbase" format="1">
  <advance width="280"/>
  <unicode hex="201E"/>
  <outline>
    <contour>
      <point x="170" y="84" type="line"/>
      <point x="158" y="15" type="line" smooth="yes"/>
      <point x="152" y="-21"/>
      <point x="128" y="-65"/>
      <point x="98" y="-93" type="curve"/>
      <point x="70" y="-93" type="line"/>
      <point x="100" y="-59"/>
      <point x="105" y="-26"/>
      <point x="112" y="13" type="curve" smooth="yes"/>
      <point x="125" y="84" type="line"/>
    </contour>
    <contour>
      <point x="55" y="84" type="line"/>
      <point x="43" y="15" type="line" smooth="yes"/>
      <point x="37" y="-21"/>
      <point x="13" y="-65"/>
      <point x="-17" y="-93" type="curve"/>
      <point x="-45" y="-93" type="line"/>
      <point x="-15" y="-59"/>
      <point x="-10" y="-26"/>
      <point x="-3" y="13" type="curve" smooth="yes"/>
      <point x="10" y="84" type="line"/>
    </contour>
  </outline>
</glyph>
<glyph name="dagger" format="1">
  <advance width="503"/>
  <unicode hex="2020"/>
  <outline>
    <contour>
      <point x="495" y="438" type="line"/>
      <point x="489" y="402" type="line"/>
      <point x="278" y="402" type="line"/>
      <point x="175" y="-179" type="line"/>
      <point x="134" y="-179" type="line"/>
      <point x="237" y="402" type="line"/>
      <point x="26" y="402" type="line"/>
      <point x="32" y="438" type="line"/>
      <point x="243" y="438" type="line"/>
      <point x="295" y="730" type="line"/>
      <point x="336" y="730" type="line"/>
      <point x="284" y="438" type="line"/>
    </contour>
  </outline>
</glyph>
<glyph name="ellipsis" format="1">
  <advance width="510"/>
  <unicode hex="2026"/>
  <outline>
    <contour>
      <point x="408" y="91" type="line"/>
      <point x="392" y="0" type="line"/>
      <point x="348" y="0" type="line"/>
      <point x="364" y="91" type="line"/>
    </contour>
    <contour>
      <point x="232" y="91" type="line"/>
      <point x="216" y="0" type="line"/>
      <point x="172" y="0" type="line"/>
      <point x="188" y="91" type="line"/>
    </contour>
    <contour>
      <point x="56" y="91" type="line"/>
      <point x="40" y="0" type="line"/>
      <point x="-4" y="0" type="line"/>
      <point x="13" y="91" type="line"/>
    </contour>
  </outline>
</glyph>
<glyph name="guilsinglleft" format="1">
  <advance width="220"/>
  <unicode hex="2039"/>
  <outline>
    <contour>
      <point x="166" y="341" type="line"/>
      <point x="157" y="296" type="line"/>
      <point x="36" y="203" type="line"/>
      <point x="122" y="115" type="line"/>
      <point x="115" y="69" type="line"/>
      <point x="-5" y="186" type="line"/>
      <point x="2" y="223" type="line"/>
    </contour>
  </outline>
</glyph>
<glyph name="guilsinglright" format="1">
  <advance width="220"/>
  <unicode hex="203A"/>
  <outline>
    <contour>
      <point x="182" y="225" type="line"/>
      <point x="175" y="188" type="line"/>
      <point x="11" y="70" type="line"/>
      <point x="21" y="115" type="line"/>
      <point x="142" y="209" type="line"/>
      <point x="56" y="296" type="line"/>
      <point x="62" y="341" type="line"/>
    </contour>
  </outline>
</glyph>
<glyph name="Euro" format="1">
  <advance width="567"/>
  <unicode hex="20AC"/>
  <outline>
    <contour>
      <point x="578" y="609" type="curve"/>
      <point x="539" y="590" type="line"/>
      <point x="517" y="650"/>
      <point x="479" y="701"/>
      <point x="400" y="701" type="curve" smooth="yes"/>
      <point x="280" y="701"/>
      <point x="190" y="580"/>
      <point x="150" y="430" type="curve"/>
      <point x="409" y="430" type="line"/>
      <point x="405" y="402" type="line"/>
      <point x="144" y="402" type="line"/>
      <point x="137" y="374"/>
      <point x="133" y="344"/>
      <point x="131" y="316" type="curve"/>
      <point x="390" y="316" type="line"/>
      <point x="386" y="287" type="line"/>
      <point x="129" y="287" type="line"/>
      <point x="129" y="278"/>
      <point x="129" y="270"/>
      <point x="129" y="261" type="curve" smooth="yes"/>
      <point x="128" y="135"/>
      <point x="172" y="30"/>
      <point x="281" y="30" type="curve" smooth="yes"/>
      <point x="359" y="30"/>
      <point x="417" y="76"/>
      <point x="465" y="143" type="curve"/>
      <point x="501" y="121" type="line"/>
      <point x="441" y="36"/>
      <point x="372" y="-12"/>
      <point x="277" y="-12" type="curve" smooth="yes"/>
      <point x="149" y="-12"/>
      <point x="82" y="100"/>
      <point x="82" y="258" type="curve" smooth="yes"/>
      <point x="82" y="268"/>
      <point x="82" y="278"/>
      <point x="82" y="287" type="curve"/>
      <point x="8" y="287" type="line"/>
      <point x="12" y="316" type="line"/>
      <point x="84" y="316" type="line"/>
      <point x="86" y="345"/>
      <point x="90" y="373"/>
      <point x="96" y="402" type="curve"/>
      <point x="27" y="402" type="line"/>
      <point x="31" y="430" type="line"/>
      <point x="103" y="430" type="line"/>
      <point x="149" y="610"/>
      <point x="259" y="742"/>
      <point x="400" y="742" type="curve" smooth="yes"/>
      <point x="500" y="742"/>
      <point x="553" y="687"/>
    </contour>
  </outline>
</glyph>
<glyph name="minus" format="1">
  <advance width="503"/>
  <unicode hex="2212"/>
  <outline>
    <contour>
      <point x="30" y="310" type="line"/>
      <point x="37" y="350" type="line"/>
      <point x="466" y="350" type="line"/>
      <point x="459" y="310" type="line"/>
    </contour>
  </outline>
</glyph>
<glyph name="radical" format="1">
  <advance width="501"/>
  <unicode hex="221A"/>
  <outline>
    <contour>
      <point x="538" y="730" type="line"/>
      <point x="137" y="-21" type="line"/>
      <point x="117" y="-21" type="line"/>
      <point x="5" y="316" type="line"/>
      <point x="51" y="316" type="line"/>
      <point x="130" y="71" type="line"/>
      <point x="136" y="54" type="line"/>
      <point x="143" y="70" type="line"/>
      <point x="494" y="730" type="line"/>
    </contour>
  </outline>
</glyph>
<glyph name="f_f" format="1">
  <advance width="406"/>
  <unicode hex="FB00"/>
  <outline>
    <contour>
      <point x="459" y="730" type="line"/>
      <point x="452" y="692" type="line"/>
      <point x="421" y="692" type="line" smooth="yes"/>
      <point x="395" y="692"/>
      <point x="376" y="679"/>
      <point x="368" y="635" type="curve" smooth="yes"/>
      <point x="327" y="401" type="line"/>
      <point x="401" y="401" type="line"/>
      <point x="394" y="365" type="line"/>
      <point x="320" y="365" type="line"/>
      <point x="224" y="-179" type="line"/>
      <point x="183" y="-179" type="line"/>
      <point x="279" y="365" type="line"/>
      <point x="117" y="365" type="line"/>
      <point x="21" y="-179" type="line"/>
      <point x="-20" y="-179" type="line"/>
      <point x="76" y="365" type="line"/>
      <point x="6" y="365" type="line"/>
      <point x="13" y="401" type="line"/>
      <point x="83" y="401" type="line"/>
      <point x="125" y="642" type="line" smooth="yes"/>
      <point x="136" y="704"/>
      <point x="176" y="730"/>
      <point x="222" y="730" type="curve" smooth="yes"/>
      <point x="256" y="730" type="line"/>
      <point x="249" y="692" type="line"/>
      <point x="218" y="692" type="line" smooth="yes"/>
      <point x="192" y="692"/>
      <point x="173" y="679"/>
      <point x="165" y="635" type="curve" smooth="yes"/>
      <point x="124" y="401" type="line"/>
      <point x="286" y="401" type="line"/>
      <point x="328" y="642" type="line" smooth="yes"/>
      <point x="339" y="704"/>
      <point x="379" y="730"/>
      <point x="425" y="730" type="curve" smooth="yes"/>
    </contour>
  </outline>
</glyph>
<glyph name="bullet" format="1">
  <advance width="296"/>
  <outline>
    <contour>
      <point x="226" y="379" type="curve" smooth="yes"/>
      <point x="226" y="336"/>
      <point x="191" y="301"/>
      <point x="148" y="301" type="curve" smooth="yes"/>
      <point x="105" y="301"/>
      <point x="70" y="336"/>
      <point x="70" y="379" type="curve" smooth="yes"/>
      <point x="70" y="422"/>
      <point x="105" y="457"/>
      <point x="148" y="457" type="curve" smooth="yes"/>
      <point x="191" y="457"/>
      <point x="226" y="422"/>
    </contour>
  </outline>
</glyph>
<glyph name="f_i" format="1">
  <advance width="374"/>
  <outline>
    <contour>
      <point x="349" y="593" type="line"/>
      <point x="334" y="513" type="line"/>
      <point x="293" y="513" type="line"/>
      <point x="308" y="593" type="line"/>
    </contour>
    <contour>
      <point x="256" y="730" type="line"/>
      <point x="249" y="692" type="line"/>
      <point x="218" y="692" type="line" smooth="yes"/>
      <point x="192" y="692"/>
      <point x="173" y="679"/>
      <point x="165" y="635" type="curve" smooth="yes"/>
      <point x="124" y="401" type="line"/>
      <point x="198" y="401" type="line"/>
      <point x="191" y="365" type="line"/>
      <point x="117" y="365" type="line"/>
      <point x="21" y="-179" type="line"/>
      <point x="-20" y="-179" type="line"/>
      <point x="76" y="365" type="line"/>
      <point x="6" y="365" type="line"/>
      <point x="13" y="401" type="line"/>
      <point x="83" y="401" type="line"/>
      <point x="125" y="642" type="line" smooth="yes"/>
      <point x="136" y="704"/>
      <point x="176" y="730"/>
      <point x="222" y="730" type="curve" smooth="yes"/>
    </contour>
    <contour>
      <point x="315" y="401" type="line"/>
      <point x="244" y="0" type="line"/>
      <point x="203" y="0" type="line"/>
      <point x="274" y="401" type="line"/>
    </contour>
  </outline>
</glyph>
<glyph name="macron" format="1">
  <advance width="437"/>
  <outline>
    <contour>
      <point x="373" y="531" type="line"/>
      <point x="370" y="497" type="line"/>
      <point x="98" y="497" type="line"/>
      <point x="101" y="531" type="line"/>
    </contour>
  </outline>
</glyph>
<glyph name="onesuperior" format="1">
  <advance width="306"/>
  <outline>
    <contour>
      <point x="180" y="342" type="line"/>
      <point x="136" y="342" type="line"/>
      <point x="192" y="658" type="line"/>
      <point x="176" y="643"/>
      <point x="145" y="628"/>
      <point x="121" y="627" type="curve"/>
      <point x="129" y="665" type="line"/>
      <point x="166" y="673"/>
      <point x="194" y="698"/>
      <point x="210" y="730" type="curve"/>
      <point x="248" y="730" type="line"/>
    </contour>
  </outline>
</glyph>
<glyph name="registered" format="1">
  <advance width="844"/>
  <outline>
    <contour>
      <point x="799" y="365" type="curve" smooth="yes"/>
      <point x="799" y="157"/>
      <point x="630" y="-12"/>
      <point x="422" y="-12" type="curve" smooth="yes"/>
      <point x="214" y="-12"/>
      <point x="45" y="157"/>
      <point x="45" y="365" type="curve" smooth="yes"/>
      <point x="45" y="573"/>
      <point x="214" y="742"/>
      <point x="422" y="742" type="curve" smooth="yes"/>
      <point x="630" y="742"/>
      <point x="799" y="573"/>
    </contour>
    <contour>
      <point x="765" y="364" type="curve" smooth="yes"/>
      <point x="765" y="553"/>
      <point x="613" y="709"/>
      <point x="422" y="709" type="curve" smooth="yes"/>
      <point x="231" y="709"/>
      <point x="79" y="553"/>
      <point x="79" y="364" type="curve" smooth="yes"/>
      <point x="79" y="175"/>
      <point x="231" y="21"/>
      <point x="422" y="21" type="curve" smooth="yes"/>
      <point x="613" y="21"/>
      <point x="765" y="175"/>
    </contour>
    <contour>
      <point x="575" y="155" type="line"/>
      <point x="524" y="155" type="line"/>
      <point x="344" y="360" type="line"/>
      <point x="344" y="155" type="line"/>
      <point x="305" y="155" type="line"/>
      <point x="305" y="593" type="line"/>
      <point x="424" y="593" type="line" smooth="yes"/>
      <point x="499" y="593"/>
      <point x="563" y="548"/>
      <point x="563" y="472" type="curve" smooth="yes"/>
      <point x="563" y="387"/>
      <point x="494" y="348"/>
      <point x="416" y="348" type="curve" smooth="yes"/>
      <point x="402" y="348" type="line"/>
    </contour>
    <contour>
      <point x="522" y="472" type="curve" smooth="yes"/>
      <point x="522" y="525"/>
      <point x="481" y="556"/>
      <point x="424" y="556" type="curve" smooth="yes"/>
      <point x="344" y="556" type="line"/>
      <point x="344" y="383" type="line"/>
      <point x="418" y="383" type="line" smooth="yes"/>
      <point x="480" y="383"/>
      <point x="522" y="415"/>
    </contour>
  </outline>
</glyph>
<glyph name="threesuperior" format="1">
  <advance width="403"/>
  <outline>
    <contour>
      <point x="286" y="554" type="curve"/>
      <point x="332" y="545"/>
      <point x="351" y="510"/>
      <point x="351" y="473" type="curve" smooth="yes"/>
      <point x="351" y="401"/>
      <point x="293" y="344"/>
      <point x="213" y="344" type="curve" smooth="yes"/>
      <point x="151" y="344"/>
      <point x="104" y="372"/>
      <point x="76" y="422" type="curve"/>
      <point x="109" y="448" type="line"/>
      <point x="140" y="401"/>
      <point x="168" y="384"/>
      <point x="214" y="384" type="curve" smooth="yes"/>
      <point x="271" y="384"/>
      <point x="307" y="421"/>
      <point x="307" y="471" type="curve" smooth="yes"/>
      <point x="307" y="510"/>
      <point x="275" y="537"/>
      <point x="223" y="537" type="curve" smooth="yes"/>
      <point x="186" y="537" type="line"/>
      <point x="192" y="574" type="line"/>
      <point x="228" y="574" type="line" smooth="yes"/>
      <point x="288" y="574"/>
      <point x="324" y="605"/>
      <point x="324" y="647" type="curve" smooth="yes"/>
      <point x="324" y="680"/>
      <point x="298" y="699"/>
      <point x="260" y="699" type="curve" smooth="yes"/>
      <point x="225" y="699"/>
      <point x="198" y="684"/>
      <point x="170" y="655" type="curve"/>
      <point x="140" y="682" type="line"/>
      <point x="181" y="725"/>
      <point x="218" y="740"/>
      <point x="263" y="740" type="curve" smooth="yes"/>
      <point x="324" y="740"/>
      <point x="368" y="704"/>
      <point x="368" y="652" type="curve" smooth="yes"/>
      <point x="368" y="606"/>
      <point x="343" y="566"/>
    </contour>
  </outline>
</glyph>
